<svg width="2158" height="664" viewBox="0 0 2158 664" fill="none" xmlns="http://www.w3.org/2000/svg">
<g clip-path="url(#clip0_29_2)">
<mask id="path-1-inside-1_29_2" fill="white">
<path fill-rule="evenodd" clip-rule="evenodd" d="M1303.34 108.657C1303.34 114.223 1305.91 120.367 1309.07 122.317C1312.23 124.267 1314.2 121.682 1313.45 116.581C1311.47 103.109 1303.34 96.7382 1303.34 108.657ZM1232.66 123.959C1240.48 125.462 1251.8 125.405 1257.81 123.833C1263.83 122.261 1257.42 121.028 1243.59 121.097C1229.75 121.166 1224.83 122.455 1232.66 123.959ZM770.689 160.393C770.72 181.148 771.896 188.878 773.299 177.576C774.695 166.274 774.67 149.292 773.236 139.839C771.796 130.386 770.651 139.638 770.689 160.393ZM1592.65 128.21C1592.65 129.537 1598.31 132.103 1605.23 133.915C1612.16 135.726 1616.24 134.638 1614.3 131.506C1610.91 126.028 1592.65 123.248 1592.65 128.21ZM889.81 167.871C895.866 169.456 905.766 169.456 911.822 167.871C917.879 166.292 912.923 164.997 900.816 164.997C888.709 164.997 883.753 166.292 889.81 167.871ZM1182.48 168.179C1200.75 169.456 1229.05 169.443 1245.37 168.154C1261.69 166.858 1246.73 165.821 1212.14 165.833C1177.55 165.852 1164.2 166.909 1182.48 168.179ZM2078.82 201.274C2078.82 220.299 2079.99 228.086 2081.43 218.57C2082.87 209.054 2082.87 193.494 2081.43 183.978C2079.99 174.462 2078.82 182.249 2078.82 201.274ZM525.969 286.18C525.975 338.068 526.95 358.458 528.133 331.489C529.315 304.527 529.309 262.073 528.12 237.149C526.925 212.23 525.963 234.293 525.969 286.18ZM2154.6 245.3C2154.6 274.702 2155.68 286.728 2157.01 272.029C2158.33 257.325 2158.33 233.268 2157.01 218.57C2155.68 203.865 2154.6 215.897 2154.6 245.3ZM1713.73 242.155C1713.8 255.991 1715.09 260.91 1716.59 253.086C1718.1 245.262 1718.04 233.941 1716.47 227.928C1714.89 221.916 1713.66 228.318 1713.73 242.155ZM771.117 295.615C771.117 335.395 772.142 351.665 773.387 331.778C774.632 311.885 774.632 279.338 773.387 259.451C772.142 239.557 771.117 255.834 771.117 295.615ZM494.07 273.602C494.101 297.816 495.233 306.948 496.598 293.904C497.956 280.853 497.937 261.042 496.548 249.878C495.158 238.708 494.044 249.388 494.07 273.602ZM1351.14 255.363C1348.9 261.193 1348.48 267.382 1350.21 269.111C1351.94 270.841 1355.19 267.482 1357.42 261.652C1359.66 255.822 1360.08 249.633 1358.35 247.903C1356.62 246.174 1353.37 249.532 1351.14 255.363ZM1952.83 262.237C1958.95 263.834 1967.44 263.727 1971.7 262.004C1975.96 260.281 1970.95 258.979 1960.58 259.105C1950.2 259.231 1946.71 260.639 1952.83 262.237ZM1447.99 286.18C1447.99 291.369 1450.73 295.615 1454.09 295.615C1457.43 295.615 1458.55 291.369 1456.56 286.18C1454.56 280.992 1451.82 276.746 1450.46 276.746C1449.1 276.746 1447.99 280.992 1447.99 286.18ZM2068.73 312.596C2072.87 315.539 2077.35 336.275 2078.68 358.672L2081.12 399.389L2080.6 355.867C2080.2 322.816 2077.8 311.728 2070.64 309.791C2064.01 307.992 2063.44 308.829 2068.73 312.596ZM2154.41 345.93C2154.41 368.414 2155.56 377.609 2156.95 366.37C2158.35 355.131 2158.35 336.734 2156.95 325.489C2155.56 314.244 2154.41 323.445 2154.41 345.93ZM875.023 328.942C877.954 331.873 889.904 333.282 901.59 332.08C922.307 329.948 922.175 329.816 896.263 326.753C881.652 325.03 872.092 326.011 875.023 328.942ZM1175.98 331.697C1194.13 332.967 1223.86 332.967 1242.01 331.697C1260.17 330.426 1245.32 329.388 1209 329.388C1172.67 329.388 1157.82 330.426 1175.98 331.697ZM493.717 371.087C493.717 386.653 494.944 393.018 496.447 385.238C497.944 377.458 497.944 364.716 496.447 356.936C494.944 349.156 493.717 355.521 493.717 371.087ZM286.118 400.76C295.677 402.201 309.829 402.163 317.564 400.672C325.3 399.182 317.476 397.999 300.181 398.043C282.885 398.094 276.558 399.314 286.118 400.76ZM452.773 400.691C460.597 402.194 471.918 402.138 477.931 400.565C483.944 398.993 477.541 397.76 463.704 397.829C449.868 397.899 444.949 399.188 452.773 400.691ZM177.06 432.408L161.814 449.704L179.11 434.459C195.274 420.207 199.293 415.113 194.356 415.113C193.23 415.113 185.45 422.893 177.06 432.408ZM337.716 460.843C335.747 468.698 334.986 494.875 336.024 519.019L337.917 562.913L376.999 564.781C404.622 566.102 420.534 563.731 431.27 556.693C445.151 547.598 446.799 547.611 450.333 556.819C452.887 563.473 460.088 566.221 471.528 564.907C486.057 563.234 489.183 559.542 490.862 542.095C492.359 526.523 495.529 521.793 503.441 523.34C509.258 524.472 514.428 531.013 514.925 537.869C515.422 544.724 516.126 553.875 516.497 558.196C516.868 562.592 525.485 566.058 536.032 566.058H554.9V517.139C554.9 475.912 552.913 466.522 542.252 457.39C522.793 440.736 495.768 443.83 472.12 465.434L451.453 484.308L436.685 465.434C423.006 447.962 418.918 446.56 381.609 446.56C344.942 446.56 340.98 447.849 337.716 460.843ZM567.548 459.006C558.341 476.208 566.077 501.956 583.976 513.68C594.938 520.862 598.926 529.271 598.926 545.183C598.926 565.158 600.31 566.737 616.222 564.9C630.473 563.265 633.857 559.448 635.429 543.246C636.48 532.435 644.266 517.082 652.725 509.133C663.845 498.686 668.109 488.013 668.109 470.623C668.109 448.082 666.92 446.56 649.241 446.56C631.983 446.56 630.373 448.383 630.373 467.899C630.373 481.302 626.775 490.623 620.7 492.95C610.807 496.749 609.077 493.981 602.473 463.855C597.926 443.107 577.574 440.276 567.548 459.006ZM684.883 450.755C675.606 460.031 682.015 464.855 708.99 468.899C724.556 471.233 737.248 474.943 737.185 477.151C737.129 479.352 724.393 493.403 708.883 508.384C690.751 525.9 680.688 541.045 680.688 550.837C680.688 565.573 682.172 566.058 727.487 566.058C753.229 566.058 775.683 563.8 777.387 561.039C783.708 550.819 771.028 541.781 747.582 539.793L723.449 537.755L752.336 509.453C772.733 489.466 781.236 476.069 781.268 463.855L781.318 446.56H735.198C709.827 446.56 687.185 448.446 684.883 450.755ZM859.457 454.975C857.677 459.61 857.061 485.786 858.08 513.151C859.897 561.938 860.268 562.951 876.828 564.863C892.262 566.649 893.891 564.749 895.696 542.906C897.055 526.485 900.992 518.365 908.275 516.982C916.464 515.434 919.326 520.435 920.854 538.944L922.829 562.913H963.71H1004.59L1007.74 540.9C1010.77 519.617 1011.87 518.824 1040.75 516.969C1070.31 515.076 1070.63 514.824 1070.63 493.12C1070.63 457.799 1054.22 445.515 1010.1 447.792C973.276 449.698 973.131 449.78 969.257 471.717C967.119 483.824 964.993 489.271 964.54 483.818C964.081 478.371 957.156 467.755 949.156 460.233C937.709 449.484 926.904 446.56 898.64 446.56C874.413 446.56 861.633 449.308 859.457 454.975ZM1159.77 461.113C1152.25 469.12 1146.1 480.006 1146.1 485.296C1146.1 499.849 1166.98 515.743 1186.1 515.743C1195.62 515.743 1204.74 520.013 1206.83 525.447C1212.25 539.586 1203.98 544.724 1189.93 535.944C1161.6 518.252 1135.25 533.007 1157.75 553.963C1176.76 571.674 1223.38 570.542 1242.01 551.907L1256.17 537.755L1258.18 551.907C1260.07 565.196 1263.17 566.058 1309.02 566.058C1335.87 566.058 1359.71 564.196 1361.98 561.919C1370.76 553.146 1351.02 540.9 1328.1 540.9C1314.88 540.9 1302.52 538.391 1300.63 535.321C1296.01 527.843 1309.43 517.453 1327.17 514.774C1347.22 511.743 1345.1 500.466 1323.99 497.881C1314.39 496.705 1304.55 492.554 1302.14 488.654C1295.14 477.321 1310.34 464.245 1325.95 468.164C1344.08 472.711 1359.94 466.591 1359.94 455.056C1359.94 447.836 1350.2 446.396 1311.2 447.868L1262.46 449.704L1260.57 489.591L1258.68 529.479L1243.57 513.177C1234.84 503.755 1221.62 496.875 1212.24 496.875C1194.01 496.875 1184.53 481.05 1195.97 469.723C1201.77 463.987 1204.91 464.805 1209.7 473.289C1216.33 485.038 1253.02 489.032 1253.02 478.006C1253.02 474.547 1247.36 466.057 1240.44 459.138C1222.06 440.754 1177.89 441.836 1159.77 461.113ZM1375.3 454.673C1373.46 459.472 1372.79 485.786 1373.81 513.151C1375.56 560.196 1376.48 563.026 1390.68 565.032C1408.14 567.504 1416.31 557.347 1416.45 533.038C1416.6 505.548 1434.27 511.057 1436.61 539.328C1438.21 558.718 1441.23 563.29 1453.57 565.032C1461.83 566.202 1470.98 563.372 1473.92 558.743C1481.71 546.454 1480.61 517.183 1472.25 514.397C1466.95 512.629 1467.12 508.133 1472.89 497.359C1479.55 484.912 1478.88 480.258 1468.43 466.214C1457.84 451.994 1450.77 449.446 1417.39 447.83C1388.83 446.446 1377.76 448.245 1375.3 454.673ZM1490.19 450.484C1487.73 452.937 1485.73 470.899 1485.73 490.396C1485.73 522.246 1487.83 527.9 1506.47 545.957C1532.92 571.586 1547.21 571.29 1572.4 544.586C1593.11 522.623 1595.48 511.68 1588.56 469.811C1585.04 448.541 1582.79 446.107 1568.19 447.799C1552.94 449.566 1551.54 452.39 1548.62 487.44C1546.29 515.39 1543.03 525.177 1536.04 525.177C1529.06 525.177 1525.79 515.39 1523.46 487.44C1520.8 455.49 1518.35 449.421 1507.48 447.868C1500.42 446.855 1492.64 448.038 1490.19 450.484ZM1601.6 454.975C1599.82 459.61 1599.21 485.786 1600.23 513.151L1602.08 562.913L1645.48 564.794C1669.35 565.831 1693.02 565.089 1698.08 563.146C1715.25 556.561 1693.62 540.9 1667.35 540.9C1647.42 540.9 1642.96 538.674 1642.96 528.718C1642.96 519.648 1648.05 516.038 1662.92 514.567C1691.31 511.768 1694.04 496.875 1666.17 496.875C1642.3 496.875 1631.74 483.642 1646.1 471.723C1650.87 467.761 1664.06 465.434 1675.42 466.547C1691.03 468.082 1696.59 465.899 1698.27 457.566C1700.23 447.855 1694.86 446.56 1652.66 446.56C1618.52 446.56 1603.91 448.968 1601.6 454.975ZM1715.09 460.843C1713.12 468.698 1712.36 494.875 1713.4 519.019C1715.23 561.598 1715.81 562.97 1732.45 564.888C1748.1 566.693 1749.96 564.63 1753.69 541.303C1758.23 512.894 1774.54 505.648 1775.83 531.466C1776.26 540.114 1776.96 550.73 1777.4 555.051C1777.83 559.416 1786.57 562.913 1797.05 562.913C1812.88 562.913 1816.23 560.171 1817.88 545.925C1818.96 536.586 1816.83 523.315 1813.15 516.434C1808.71 508.145 1808.58 502.61 1812.76 500.032C1823.59 493.334 1819.68 474.491 1804.51 460.233C1793.1 449.516 1782.25 446.56 1754.32 446.56C1722.5 446.56 1718.29 448.094 1715.09 460.843ZM5.21519 458.107C3.61769 460.698 7.76867 463.226 14.448 463.73C28.8947 464.818 30.1651 461.855 17.36 456.943C12.2844 454.994 6.81898 455.516 5.21519 458.107ZM381.326 480.491C379.477 485.315 378.854 500.151 379.949 513.46C381.358 530.516 385.188 538.265 392.949 539.737C402.364 541.523 403.955 536.755 403.955 506.768C403.955 479.484 401.823 471.717 394.326 471.717C389.024 471.717 383.175 475.667 381.326 480.491ZM895.722 482.723C896.891 488.78 902.011 493.73 907.105 493.73C912.2 493.73 917.319 488.78 918.489 482.723C919.973 475 916.577 471.717 907.105 471.717C897.634 471.717 894.237 475 895.722 482.723ZM1008.93 482.723C1010.1 488.78 1015.22 493.73 1020.31 493.73C1025.41 493.73 1030.53 488.78 1031.7 482.723C1033.18 475 1029.79 471.717 1020.31 471.717C1010.84 471.717 1007.45 475 1008.93 482.723ZM1414.88 475.478C1408.76 481.598 1417.17 496.875 1426.65 496.875C1431.47 496.875 1435.41 491.214 1435.41 484.296C1435.41 472.453 1423.16 467.195 1414.88 475.478ZM1756.17 480.78C1756.17 485.768 1758.68 491.396 1761.75 493.29C1768.67 497.573 1782.77 481.541 1777.08 475.855C1769.6 468.371 1756.17 471.535 1756.17 480.78ZM501.441 484.296C499.302 487.755 500.384 490.585 503.843 490.585C507.302 490.585 511.881 487.755 514.019 484.296C516.158 480.837 515.076 478.006 511.617 478.006C508.158 478.006 503.579 480.837 501.441 484.296ZM947.961 503.208C945.804 506.692 948.59 511.29 954.15 513.422C966.188 518.038 972.898 512.95 967.112 503.585C961.892 495.132 953.056 494.963 947.961 503.208Z"/>
</mask>
<path fill-rule="evenodd" clip-rule="evenodd" d="M1303.34 108.657C1303.34 114.223 1305.91 120.367 1309.07 122.317C1312.23 124.267 1314.2 121.682 1313.45 116.581C1311.47 103.109 1303.34 96.7382 1303.34 108.657ZM1232.66 123.959C1240.48 125.462 1251.8 125.405 1257.81 123.833C1263.83 122.261 1257.42 121.028 1243.59 121.097C1229.75 121.166 1224.83 122.455 1232.66 123.959ZM770.689 160.393C770.72 181.148 771.896 188.878 773.299 177.576C774.695 166.274 774.67 149.292 773.236 139.839C771.796 130.386 770.651 139.638 770.689 160.393ZM1592.65 128.21C1592.65 129.537 1598.31 132.103 1605.23 133.915C1612.16 135.726 1616.24 134.638 1614.3 131.506C1610.91 126.028 1592.65 123.248 1592.65 128.21ZM889.81 167.871C895.866 169.456 905.766 169.456 911.822 167.871C917.879 166.292 912.923 164.997 900.816 164.997C888.709 164.997 883.753 166.292 889.81 167.871ZM1182.48 168.179C1200.75 169.456 1229.05 169.443 1245.37 168.154C1261.69 166.858 1246.73 165.821 1212.14 165.833C1177.55 165.852 1164.2 166.909 1182.48 168.179ZM2078.82 201.274C2078.82 220.299 2079.99 228.086 2081.43 218.57C2082.87 209.054 2082.87 193.494 2081.43 183.978C2079.99 174.462 2078.82 182.249 2078.82 201.274ZM525.969 286.18C525.975 338.068 526.95 358.458 528.133 331.489C529.315 304.527 529.309 262.073 528.12 237.149C526.925 212.23 525.963 234.293 525.969 286.18ZM2154.6 245.3C2154.6 274.702 2155.68 286.728 2157.01 272.029C2158.33 257.325 2158.33 233.268 2157.01 218.57C2155.68 203.865 2154.6 215.897 2154.6 245.3ZM1713.73 242.155C1713.8 255.991 1715.09 260.91 1716.59 253.086C1718.1 245.262 1718.04 233.941 1716.47 227.928C1714.89 221.916 1713.66 228.318 1713.73 242.155ZM771.117 295.615C771.117 335.395 772.142 351.665 773.387 331.778C774.632 311.885 774.632 279.338 773.387 259.451C772.142 239.557 771.117 255.834 771.117 295.615ZM494.07 273.602C494.101 297.816 495.233 306.948 496.598 293.904C497.956 280.853 497.937 261.042 496.548 249.878C495.158 238.708 494.044 249.388 494.07 273.602ZM1351.14 255.363C1348.9 261.193 1348.48 267.382 1350.21 269.111C1351.94 270.841 1355.19 267.482 1357.42 261.652C1359.66 255.822 1360.08 249.633 1358.35 247.903C1356.62 246.174 1353.37 249.532 1351.14 255.363ZM1952.83 262.237C1958.95 263.834 1967.44 263.727 1971.7 262.004C1975.96 260.281 1970.95 258.979 1960.58 259.105C1950.2 259.231 1946.71 260.639 1952.83 262.237ZM1447.99 286.18C1447.99 291.369 1450.73 295.615 1454.09 295.615C1457.43 295.615 1458.55 291.369 1456.56 286.18C1454.56 280.992 1451.82 276.746 1450.46 276.746C1449.1 276.746 1447.99 280.992 1447.99 286.18ZM2068.73 312.596C2072.87 315.539 2077.35 336.275 2078.68 358.672L2081.12 399.389L2080.6 355.867C2080.2 322.816 2077.8 311.728 2070.64 309.791C2064.01 307.992 2063.44 308.829 2068.73 312.596ZM2154.41 345.93C2154.41 368.414 2155.56 377.609 2156.95 366.37C2158.35 355.131 2158.35 336.734 2156.95 325.489C2155.56 314.244 2154.41 323.445 2154.41 345.93ZM875.023 328.942C877.954 331.873 889.904 333.282 901.59 332.08C922.307 329.948 922.175 329.816 896.263 326.753C881.652 325.03 872.092 326.011 875.023 328.942ZM1175.98 331.697C1194.13 332.967 1223.86 332.967 1242.01 331.697C1260.17 330.426 1245.32 329.388 1209 329.388C1172.67 329.388 1157.82 330.426 1175.98 331.697ZM493.717 371.087C493.717 386.653 494.944 393.018 496.447 385.238C497.944 377.458 497.944 364.716 496.447 356.936C494.944 349.156 493.717 355.521 493.717 371.087ZM286.118 400.76C295.677 402.201 309.829 402.163 317.564 400.672C325.3 399.182 317.476 397.999 300.181 398.043C282.885 398.094 276.558 399.314 286.118 400.76ZM452.773 400.691C460.597 402.194 471.918 402.138 477.931 400.565C483.944 398.993 477.541 397.76 463.704 397.829C449.868 397.899 444.949 399.188 452.773 400.691ZM177.06 432.408L161.814 449.704L179.11 434.459C195.274 420.207 199.293 415.113 194.356 415.113C193.23 415.113 185.45 422.893 177.06 432.408ZM337.716 460.843C335.747 468.698 334.986 494.875 336.024 519.019L337.917 562.913L376.999 564.781C404.622 566.102 420.534 563.731 431.27 556.693C445.151 547.598 446.799 547.611 450.333 556.819C452.887 563.473 460.088 566.221 471.528 564.907C486.057 563.234 489.183 559.542 490.862 542.095C492.359 526.523 495.529 521.793 503.441 523.34C509.258 524.472 514.428 531.013 514.925 537.869C515.422 544.724 516.126 553.875 516.497 558.196C516.868 562.592 525.485 566.058 536.032 566.058H554.9V517.139C554.9 475.912 552.913 466.522 542.252 457.39C522.793 440.736 495.768 443.83 472.12 465.434L451.453 484.308L436.685 465.434C423.006 447.962 418.918 446.56 381.609 446.56C344.942 446.56 340.98 447.849 337.716 460.843ZM567.548 459.006C558.341 476.208 566.077 501.956 583.976 513.68C594.938 520.862 598.926 529.271 598.926 545.183C598.926 565.158 600.31 566.737 616.222 564.9C630.473 563.265 633.857 559.448 635.429 543.246C636.48 532.435 644.266 517.082 652.725 509.133C663.845 498.686 668.109 488.013 668.109 470.623C668.109 448.082 666.92 446.56 649.241 446.56C631.983 446.56 630.373 448.383 630.373 467.899C630.373 481.302 626.775 490.623 620.7 492.95C610.807 496.749 609.077 493.981 602.473 463.855C597.926 443.107 577.574 440.276 567.548 459.006ZM684.883 450.755C675.606 460.031 682.015 464.855 708.99 468.899C724.556 471.233 737.248 474.943 737.185 477.151C737.129 479.352 724.393 493.403 708.883 508.384C690.751 525.9 680.688 541.045 680.688 550.837C680.688 565.573 682.172 566.058 727.487 566.058C753.229 566.058 775.683 563.8 777.387 561.039C783.708 550.819 771.028 541.781 747.582 539.793L723.449 537.755L752.336 509.453C772.733 489.466 781.236 476.069 781.268 463.855L781.318 446.56H735.198C709.827 446.56 687.185 448.446 684.883 450.755ZM859.457 454.975C857.677 459.61 857.061 485.786 858.08 513.151C859.897 561.938 860.268 562.951 876.828 564.863C892.262 566.649 893.891 564.749 895.696 542.906C897.055 526.485 900.992 518.365 908.275 516.982C916.464 515.434 919.326 520.435 920.854 538.944L922.829 562.913H963.71H1004.59L1007.74 540.9C1010.77 519.617 1011.87 518.824 1040.75 516.969C1070.31 515.076 1070.63 514.824 1070.63 493.12C1070.63 457.799 1054.22 445.515 1010.1 447.792C973.276 449.698 973.131 449.78 969.257 471.717C967.119 483.824 964.993 489.271 964.54 483.818C964.081 478.371 957.156 467.755 949.156 460.233C937.709 449.484 926.904 446.56 898.64 446.56C874.413 446.56 861.633 449.308 859.457 454.975ZM1159.77 461.113C1152.25 469.12 1146.1 480.006 1146.1 485.296C1146.1 499.849 1166.98 515.743 1186.1 515.743C1195.62 515.743 1204.74 520.013 1206.83 525.447C1212.25 539.586 1203.98 544.724 1189.93 535.944C1161.6 518.252 1135.25 533.007 1157.75 553.963C1176.76 571.674 1223.38 570.542 1242.01 551.907L1256.17 537.755L1258.18 551.907C1260.07 565.196 1263.17 566.058 1309.02 566.058C1335.87 566.058 1359.71 564.196 1361.98 561.919C1370.76 553.146 1351.02 540.9 1328.1 540.9C1314.88 540.9 1302.52 538.391 1300.63 535.321C1296.01 527.843 1309.43 517.453 1327.17 514.774C1347.22 511.743 1345.1 500.466 1323.99 497.881C1314.39 496.705 1304.55 492.554 1302.14 488.654C1295.14 477.321 1310.34 464.245 1325.95 468.164C1344.08 472.711 1359.94 466.591 1359.94 455.056C1359.94 447.836 1350.2 446.396 1311.2 447.868L1262.46 449.704L1260.57 489.591L1258.68 529.479L1243.57 513.177C1234.84 503.755 1221.62 496.875 1212.24 496.875C1194.01 496.875 1184.53 481.05 1195.97 469.723C1201.77 463.987 1204.91 464.805 1209.7 473.289C1216.33 485.038 1253.02 489.032 1253.02 478.006C1253.02 474.547 1247.36 466.057 1240.44 459.138C1222.06 440.754 1177.89 441.836 1159.77 461.113ZM1375.3 454.673C1373.46 459.472 1372.79 485.786 1373.81 513.151C1375.56 560.196 1376.48 563.026 1390.68 565.032C1408.14 567.504 1416.31 557.347 1416.45 533.038C1416.6 505.548 1434.27 511.057 1436.61 539.328C1438.21 558.718 1441.23 563.29 1453.57 565.032C1461.83 566.202 1470.98 563.372 1473.92 558.743C1481.71 546.454 1480.61 517.183 1472.25 514.397C1466.95 512.629 1467.12 508.133 1472.89 497.359C1479.55 484.912 1478.88 480.258 1468.43 466.214C1457.84 451.994 1450.77 449.446 1417.39 447.83C1388.83 446.446 1377.76 448.245 1375.3 454.673ZM1490.19 450.484C1487.73 452.937 1485.73 470.899 1485.73 490.396C1485.73 522.246 1487.83 527.9 1506.47 545.957C1532.92 571.586 1547.21 571.29 1572.4 544.586C1593.11 522.623 1595.48 511.68 1588.56 469.811C1585.04 448.541 1582.79 446.107 1568.19 447.799C1552.94 449.566 1551.54 452.39 1548.62 487.44C1546.29 515.39 1543.03 525.177 1536.04 525.177C1529.06 525.177 1525.79 515.39 1523.46 487.44C1520.8 455.49 1518.35 449.421 1507.48 447.868C1500.42 446.855 1492.64 448.038 1490.19 450.484ZM1601.6 454.975C1599.82 459.61 1599.21 485.786 1600.23 513.151L1602.08 562.913L1645.48 564.794C1669.35 565.831 1693.02 565.089 1698.08 563.146C1715.25 556.561 1693.62 540.9 1667.35 540.9C1647.42 540.9 1642.96 538.674 1642.96 528.718C1642.96 519.648 1648.05 516.038 1662.92 514.567C1691.31 511.768 1694.04 496.875 1666.17 496.875C1642.3 496.875 1631.74 483.642 1646.1 471.723C1650.87 467.761 1664.06 465.434 1675.42 466.547C1691.03 468.082 1696.59 465.899 1698.27 457.566C1700.23 447.855 1694.86 446.56 1652.66 446.56C1618.52 446.56 1603.91 448.968 1601.6 454.975ZM1715.09 460.843C1713.12 468.698 1712.36 494.875 1713.4 519.019C1715.23 561.598 1715.81 562.97 1732.45 564.888C1748.1 566.693 1749.96 564.63 1753.69 541.303C1758.23 512.894 1774.54 505.648 1775.83 531.466C1776.26 540.114 1776.96 550.73 1777.4 555.051C1777.83 559.416 1786.57 562.913 1797.05 562.913C1812.88 562.913 1816.23 560.171 1817.88 545.925C1818.96 536.586 1816.83 523.315 1813.15 516.434C1808.71 508.145 1808.58 502.61 1812.76 500.032C1823.59 493.334 1819.68 474.491 1804.51 460.233C1793.1 449.516 1782.25 446.56 1754.32 446.56C1722.5 446.56 1718.29 448.094 1715.09 460.843ZM5.21519 458.107C3.61769 460.698 7.76867 463.226 14.448 463.73C28.8947 464.818 30.1651 461.855 17.36 456.943C12.2844 454.994 6.81898 455.516 5.21519 458.107ZM381.326 480.491C379.477 485.315 378.854 500.151 379.949 513.46C381.358 530.516 385.188 538.265 392.949 539.737C402.364 541.523 403.955 536.755 403.955 506.768C403.955 479.484 401.823 471.717 394.326 471.717C389.024 471.717 383.175 475.667 381.326 480.491ZM895.722 482.723C896.891 488.78 902.011 493.73 907.105 493.73C912.2 493.73 917.319 488.78 918.489 482.723C919.973 475 916.577 471.717 907.105 471.717C897.634 471.717 894.237 475 895.722 482.723ZM1008.93 482.723C1010.1 488.78 1015.22 493.73 1020.31 493.73C1025.41 493.73 1030.53 488.78 1031.7 482.723C1033.18 475 1029.79 471.717 1020.31 471.717C1010.84 471.717 1007.45 475 1008.93 482.723ZM1414.88 475.478C1408.76 481.598 1417.17 496.875 1426.65 496.875C1431.47 496.875 1435.41 491.214 1435.41 484.296C1435.41 472.453 1423.16 467.195 1414.88 475.478ZM1756.17 480.78C1756.17 485.768 1758.68 491.396 1761.75 493.29C1768.67 497.573 1782.77 481.541 1777.08 475.855C1769.6 468.371 1756.17 471.535 1756.17 480.78ZM501.441 484.296C499.302 487.755 500.384 490.585 503.843 490.585C507.302 490.585 511.881 487.755 514.019 484.296C516.158 480.837 515.076 478.006 511.617 478.006C508.158 478.006 503.579 480.837 501.441 484.296ZM947.961 503.208C945.804 506.692 948.59 511.29 954.15 513.422C966.188 518.038 972.898 512.95 967.112 503.585C961.892 495.132 953.056 494.963 947.961 503.208Z" stroke="white" stroke-width="8" mask="url(#path-1-inside-1_29_2)"/>
<mask id="path-2-inside-2_29_2" fill="white">
<path fill-rule="evenodd" clip-rule="evenodd" d="M0.974857 164.58L0 231.336H40.1765H80.3531L80.9065 211.82C81.6424 185.857 86.0764 182.706 106.064 193.927C127.341 205.87 151.448 241.267 151.448 260.569C151.448 274.305 148.983 275.361 116.857 275.361H82.265V309.186C82.265 346.865 93.957 364.62 110.007 351.299C123.762 339.884 129.649 355.564 116.901 369.652C101.253 386.947 67.7114 401.149 42.5225 401.149C30.3525 401.149 15.9247 402.866 10.4529 404.967C-3.93086 410.489 -1.76102 429.376 14.6542 441.577L28.8053 452.093L14.6542 449.225C4.94974 447.256 0.50315 449.344 0.50315 455.873C0.50315 461.244 4.17614 463.98 8.9372 462.156C13.5725 460.376 21.3587 461.753 26.233 465.219C33.3651 470.288 33.0318 470.86 24.5474 468.156C13.5285 464.64 -4.27048 480.238 2.74846 487.257C4.9749 489.477 6.79252 487.427 6.79252 482.703C6.79252 476.018 8.47179 475.785 14.3398 481.653C18.4908 485.804 36.7803 489.2 54.988 489.2C124.938 489.2 191.788 444.854 225.638 375.991C240.072 346.633 242.644 333.312 242.644 287.94C242.644 227.443 228.952 191.706 190.675 152.291C155.215 115.775 124.253 103.567 59.4032 100.523L1.956 97.825L0.974857 164.58ZM535.352 243.349L535.056 388.073L560.723 394.985C607 407.445 610.132 404.985 651.975 323.456C673.02 282.45 690.24 241.179 690.24 231.732C690.24 215.317 700.347 201.474 727.196 181.128C739.272 171.983 739.285 172.065 727.882 185.449C721.492 192.958 718.071 202.021 720.278 205.6C722.486 209.172 720.31 219.965 715.442 229.581C709.404 241.512 706.385 271.512 705.932 324.104L705.272 401.149H739.624H773.983L773.851 250.204L773.719 99.2589H727.555H681.391L651.158 164.977C634.529 201.128 618.158 228.99 614.774 226.902C611.396 224.814 610.491 226.116 612.768 229.795C615.038 233.48 614.774 241.701 612.164 248.066C609.491 254.6 606.057 225.436 604.283 181.021L601.139 102.404L568.396 100.511L535.654 98.6237L535.352 243.349ZM805.543 237.109C805.543 312.928 807.191 379.262 809.21 384.514C811.222 389.765 816.883 392.526 821.789 390.646C826.688 388.765 830.701 390.356 830.701 394.187C830.701 398.803 851.412 401.149 892.123 401.149C961.249 401.149 979.671 394.35 1011.37 357.123C1042.73 320.293 1047.29 307.06 1047.12 253.323C1047 213.474 1043.97 197.096 1032.55 174.706C1003.74 118.196 964.262 99.9382 870.009 99.5357L805.543 99.2589V237.109ZM1075.99 250.204V401.149L1178.19 400.709C1241.14 400.432 1275.56 398.187 1267.81 394.86C1257.06 390.237 1256.83 389.388 1266.24 389.01C1274.81 388.671 1277.25 383.01 1277.25 363.413V338.255H1215.01H1152.78L1150.38 313.098L1147.98 287.94L1182.74 287.456C1223.84 286.884 1268.46 274.28 1266.24 263.864C1265.38 259.814 1267.5 256.493 1270.96 256.493C1274.42 256.493 1277.25 248.003 1277.25 237.625V218.757L1206.49 218.26C1167.58 217.99 1139.28 216.336 1143.6 214.593C1147.92 212.845 1151.46 201.751 1151.46 189.933V168.442H1216.21H1280.98L1280.68 151.146C1280.42 135.461 1277.76 133.498 1252.09 130.077L1223.79 126.303L1250.52 125.36C1268.62 124.718 1277.25 121.611 1277.25 115.718C1277.25 102.404 1256.47 99.435 1162.47 99.347L1075.99 99.2589V250.204ZM1313.93 107.429C1317.91 112.221 1319.37 117.938 1317.17 120.127C1314.98 122.322 1318.54 126.177 1325.09 128.693C1335.76 132.8 1335.37 133.656 1321.27 136.983L1305.55 140.7L1303.85 270.921L1302.15 401.149H1340.01H1377.88L1377.74 324.104L1377.6 247.059L1365.3 262.783C1351.1 280.94 1350.02 278.695 1359.67 251.009C1365.09 235.455 1364.74 228.682 1358.1 220.197C1350.54 210.556 1350.73 210.229 1359.78 217.292C1365.4 221.675 1374.73 223.443 1380.52 221.222C1391.79 216.895 1410.84 236.38 1404.83 246.091C1402.98 249.091 1399.38 248.179 1396.83 244.059C1393.5 238.663 1391.13 239.355 1388.39 246.531C1386.28 252.009 1387.22 256.493 1390.46 256.493C1393.69 256.493 1394.71 260.776 1392.69 266.015C1390.69 271.254 1397.14 303.903 1407.05 338.563L1425.05 401.583L1462.73 399.797L1500.41 398.004L1522.48 323.154L1544.54 248.305L1546.31 324.727L1548.08 401.149H1585.62H1623.16V348.098C1623.16 318.922 1620.22 287.318 1616.63 277.865C1612.43 266.827 1612.28 259.33 1616.21 256.902C1619.58 254.827 1622.42 228.285 1622.53 197.92C1622.72 146.712 1621.73 142.316 1608.8 137.115L1594.86 131.505L1609.01 131.102C1623.53 130.693 1626.95 121.253 1617.8 106.838C1614.12 101.026 1598.53 99.2212 1563.38 100.548L1514.13 102.404L1496.52 165.297C1486.83 199.889 1478.82 242.745 1478.71 260.537C1478.56 284.097 1475.8 293.921 1468.56 296.701C1454.45 302.116 1453.35 301.682 1453.35 290.714C1453.35 285.324 1455.81 282.431 1458.83 284.299C1461.85 286.16 1457.27 262.978 1448.66 232.782C1440.06 202.581 1428.35 160.895 1422.66 140.14L1412.31 102.404L1359.51 100.561C1315.1 99.0137 1307.85 100.102 1313.93 107.429ZM1649.12 138.272C1648.78 162.832 1651.44 179.109 1656.31 182.203C1662.39 186.065 1662.36 187.14 1656.18 187.216C1650.23 187.285 1648.32 211.556 1648.32 287.311V387.319L1679.4 394.771C1696.5 398.872 1715.69 400.577 1722.06 398.551C1733.48 394.929 1808.03 253.72 1805.37 240.77C1804.65 237.311 1804.75 232.361 1805.6 229.763C1806.43 227.166 1807.61 221.512 1808.2 217.185C1808.79 212.864 1812.68 210.027 1816.84 210.895C1821.01 211.757 1824.42 208.392 1824.42 203.405C1824.42 198.417 1827.14 192.662 1830.47 190.606C1834.13 188.342 1835.16 196.222 1833.08 210.675C1831.19 223.77 1828.42 271.978 1826.92 317.815L1824.19 401.149H1858.23H1892.28L1892.91 249.94L1893.54 98.7306L1845.32 100.567L1797.11 102.404L1757.36 187.31C1721.92 263.047 1717.62 269.632 1717.57 248.261C1717.52 231.745 1719.75 225.701 1724.77 228.789C1729.65 231.814 1730.3 230.487 1726.75 224.745C1723.85 220.046 1720.99 192.015 1720.41 162.448C1719.82 132.882 1718.93 106.573 1718.42 103.976C1717.92 101.378 1702.24 99.2589 1683.58 99.2589H1649.67L1649.12 138.272ZM1982.33 109.014C1970.59 114.108 1955.86 124.196 1949.59 131.423C1913.1 173.499 1922.24 253.493 1968.05 292.934C1977.26 300.871 1981.06 306.532 1976.48 305.513C1971.49 304.406 1950.81 335.117 1924.8 382.281C1900.95 425.52 1881.35 462.709 1881.23 464.929C1881.12 467.143 1902.31 469.275 1928.32 469.665C1974.38 470.357 1975.79 469.923 1982.34 453.061C1986.03 443.533 1993.01 428.665 1997.85 420.017C2002.68 411.369 2013.76 389.344 2022.46 371.073C2031.16 352.803 2042.52 336.224 2047.71 334.236C2052.89 332.249 2057.13 326.481 2057.13 321.419C2057.13 315.481 2062.14 312.934 2071.28 314.23C2084.14 316.06 2085.6 320.123 2087.29 358.696L2089.15 401.149H2123.46H2157.76V297.286C2157.76 225.493 2155.33 189.316 2149.9 180.115C2143.61 169.461 2143.61 166.228 2149.9 163.951C2154.73 162.197 2157.76 149.209 2157.76 130.184V99.2589L2080.71 99.5042C2027.19 99.674 1997.15 102.58 1982.33 109.014ZM274.405 110.473C272.506 112.379 270.946 178.555 270.946 257.544V401.149H308.683H346.419V284.632V168.109L383.966 169.593C404.696 170.411 418.08 173.26 413.841 175.952C408.52 179.335 409.545 180.857 417.174 180.926C427.218 181.015 428.181 190.31 428.181 287.267C428.181 405.426 426.508 401.149 472.722 401.149H497.364L497.301 364.985C497.263 345.092 497.968 279.292 498.873 218.757L500.508 108.693L442.08 106.882C409.948 105.888 369.4 107.662 351.979 110.825C334.551 113.995 310.752 114.429 299.079 111.8C287.412 109.171 276.311 108.574 274.405 110.473ZM858.223 175.989C855.77 179.958 856.758 181.209 860.519 178.882C870.827 172.511 873.028 185.367 874.292 259.267C874.94 297.11 876.884 330.368 878.613 333.167C883.575 341.192 917.11 339.111 940.551 329.318C985.885 310.374 999.149 232.254 963.752 192.644C947.507 174.461 942.023 172.448 904.198 170.819C878.594 169.712 860.871 171.706 858.223 175.989ZM2009.48 176.618C2004.49 179.417 2000.52 191.052 2000.52 202.889C2000.52 231.833 2024.05 250.204 2061.12 250.204H2088.58V213.053V175.895L2053.51 173.744C2034.22 172.555 2014.41 173.851 2009.48 176.618ZM1958.19 267.141C1964.31 268.739 1972.8 268.632 1977.06 266.908C1981.32 265.185 1976.31 263.883 1965.93 264.009C1955.56 264.135 1952.07 265.544 1958.19 267.141Z"/>
</mask>
<path fill-rule="evenodd" clip-rule="evenodd" d="M0.974857 164.58L0 231.336H40.1765H80.3531L80.9065 211.82C81.6424 185.857 86.0764 182.706 106.064 193.927C127.341 205.87 151.448 241.267 151.448 260.569C151.448 274.305 148.983 275.361 116.857 275.361H82.265V309.186C82.265 346.865 93.957 364.62 110.007 351.299C123.762 339.884 129.649 355.564 116.901 369.652C101.253 386.947 67.7114 401.149 42.5225 401.149C30.3525 401.149 15.9247 402.866 10.4529 404.967C-3.93086 410.489 -1.76102 429.376 14.6542 441.577L28.8053 452.093L14.6542 449.225C4.94974 447.256 0.50315 449.344 0.50315 455.873C0.50315 461.244 4.17614 463.98 8.9372 462.156C13.5725 460.376 21.3587 461.753 26.233 465.219C33.3651 470.288 33.0318 470.86 24.5474 468.156C13.5285 464.64 -4.27048 480.238 2.74846 487.257C4.9749 489.477 6.79252 487.427 6.79252 482.703C6.79252 476.018 8.47179 475.785 14.3398 481.653C18.4908 485.804 36.7803 489.2 54.988 489.2C124.938 489.2 191.788 444.854 225.638 375.991C240.072 346.633 242.644 333.312 242.644 287.94C242.644 227.443 228.952 191.706 190.675 152.291C155.215 115.775 124.253 103.567 59.4032 100.523L1.956 97.825L0.974857 164.58ZM535.352 243.349L535.056 388.073L560.723 394.985C607 407.445 610.132 404.985 651.975 323.456C673.02 282.45 690.24 241.179 690.24 231.732C690.24 215.317 700.347 201.474 727.196 181.128C739.272 171.983 739.285 172.065 727.882 185.449C721.492 192.958 718.071 202.021 720.278 205.6C722.486 209.172 720.31 219.965 715.442 229.581C709.404 241.512 706.385 271.512 705.932 324.104L705.272 401.149H739.624H773.983L773.851 250.204L773.719 99.2589H727.555H681.391L651.158 164.977C634.529 201.128 618.158 228.99 614.774 226.902C611.396 224.814 610.491 226.116 612.768 229.795C615.038 233.48 614.774 241.701 612.164 248.066C609.491 254.6 606.057 225.436 604.283 181.021L601.139 102.404L568.396 100.511L535.654 98.6237L535.352 243.349ZM805.543 237.109C805.543 312.928 807.191 379.262 809.21 384.514C811.222 389.765 816.883 392.526 821.789 390.646C826.688 388.765 830.701 390.356 830.701 394.187C830.701 398.803 851.412 401.149 892.123 401.149C961.249 401.149 979.671 394.35 1011.37 357.123C1042.73 320.293 1047.29 307.06 1047.12 253.323C1047 213.474 1043.97 197.096 1032.55 174.706C1003.74 118.196 964.262 99.9382 870.009 99.5357L805.543 99.2589V237.109ZM1075.99 250.204V401.149L1178.19 400.709C1241.14 400.432 1275.56 398.187 1267.81 394.86C1257.06 390.237 1256.83 389.388 1266.24 389.01C1274.81 388.671 1277.25 383.01 1277.25 363.413V338.255H1215.01H1152.78L1150.38 313.098L1147.98 287.94L1182.74 287.456C1223.84 286.884 1268.46 274.28 1266.24 263.864C1265.38 259.814 1267.5 256.493 1270.96 256.493C1274.42 256.493 1277.25 248.003 1277.25 237.625V218.757L1206.49 218.26C1167.58 217.99 1139.28 216.336 1143.6 214.593C1147.92 212.845 1151.46 201.751 1151.46 189.933V168.442H1216.21H1280.98L1280.68 151.146C1280.42 135.461 1277.76 133.498 1252.09 130.077L1223.79 126.303L1250.52 125.36C1268.62 124.718 1277.25 121.611 1277.25 115.718C1277.25 102.404 1256.47 99.435 1162.47 99.347L1075.99 99.2589V250.204ZM1313.93 107.429C1317.91 112.221 1319.37 117.938 1317.17 120.127C1314.98 122.322 1318.54 126.177 1325.09 128.693C1335.76 132.8 1335.37 133.656 1321.27 136.983L1305.55 140.7L1303.85 270.921L1302.15 401.149H1340.01H1377.88L1377.74 324.104L1377.6 247.059L1365.3 262.783C1351.1 280.94 1350.02 278.695 1359.67 251.009C1365.09 235.455 1364.74 228.682 1358.1 220.197C1350.54 210.556 1350.73 210.229 1359.78 217.292C1365.4 221.675 1374.73 223.443 1380.52 221.222C1391.79 216.895 1410.84 236.38 1404.83 246.091C1402.98 249.091 1399.38 248.179 1396.83 244.059C1393.5 238.663 1391.13 239.355 1388.39 246.531C1386.28 252.009 1387.22 256.493 1390.46 256.493C1393.69 256.493 1394.71 260.776 1392.69 266.015C1390.69 271.254 1397.14 303.903 1407.05 338.563L1425.05 401.583L1462.73 399.797L1500.41 398.004L1522.48 323.154L1544.54 248.305L1546.31 324.727L1548.08 401.149H1585.62H1623.16V348.098C1623.16 318.922 1620.22 287.318 1616.63 277.865C1612.43 266.827 1612.28 259.33 1616.21 256.902C1619.58 254.827 1622.42 228.285 1622.53 197.92C1622.72 146.712 1621.73 142.316 1608.8 137.115L1594.86 131.505L1609.01 131.102C1623.53 130.693 1626.95 121.253 1617.8 106.838C1614.12 101.026 1598.53 99.2212 1563.38 100.548L1514.13 102.404L1496.52 165.297C1486.83 199.889 1478.82 242.745 1478.71 260.537C1478.56 284.097 1475.8 293.921 1468.56 296.701C1454.45 302.116 1453.35 301.682 1453.35 290.714C1453.35 285.324 1455.81 282.431 1458.83 284.299C1461.85 286.16 1457.27 262.978 1448.66 232.782C1440.06 202.581 1428.35 160.895 1422.66 140.14L1412.31 102.404L1359.51 100.561C1315.1 99.0137 1307.85 100.102 1313.93 107.429ZM1649.12 138.272C1648.78 162.832 1651.44 179.109 1656.31 182.203C1662.39 186.065 1662.36 187.14 1656.18 187.216C1650.23 187.285 1648.32 211.556 1648.32 287.311V387.319L1679.4 394.771C1696.5 398.872 1715.69 400.577 1722.06 398.551C1733.48 394.929 1808.03 253.72 1805.37 240.77C1804.65 237.311 1804.75 232.361 1805.6 229.763C1806.43 227.166 1807.61 221.512 1808.2 217.185C1808.79 212.864 1812.68 210.027 1816.84 210.895C1821.01 211.757 1824.42 208.392 1824.42 203.405C1824.42 198.417 1827.14 192.662 1830.47 190.606C1834.13 188.342 1835.16 196.222 1833.08 210.675C1831.19 223.77 1828.42 271.978 1826.92 317.815L1824.19 401.149H1858.23H1892.28L1892.91 249.94L1893.54 98.7306L1845.32 100.567L1797.11 102.404L1757.36 187.31C1721.92 263.047 1717.62 269.632 1717.57 248.261C1717.52 231.745 1719.75 225.701 1724.77 228.789C1729.65 231.814 1730.3 230.487 1726.75 224.745C1723.85 220.046 1720.99 192.015 1720.41 162.448C1719.82 132.882 1718.93 106.573 1718.42 103.976C1717.92 101.378 1702.24 99.2589 1683.58 99.2589H1649.67L1649.12 138.272ZM1982.33 109.014C1970.59 114.108 1955.86 124.196 1949.59 131.423C1913.1 173.499 1922.24 253.493 1968.05 292.934C1977.26 300.871 1981.06 306.532 1976.48 305.513C1971.49 304.406 1950.81 335.117 1924.8 382.281C1900.95 425.52 1881.35 462.709 1881.23 464.929C1881.12 467.143 1902.31 469.275 1928.32 469.665C1974.38 470.357 1975.79 469.923 1982.34 453.061C1986.03 443.533 1993.01 428.665 1997.85 420.017C2002.68 411.369 2013.76 389.344 2022.46 371.073C2031.16 352.803 2042.52 336.224 2047.71 334.236C2052.89 332.249 2057.13 326.481 2057.13 321.419C2057.13 315.481 2062.14 312.934 2071.28 314.23C2084.14 316.06 2085.6 320.123 2087.29 358.696L2089.15 401.149H2123.46H2157.76V297.286C2157.76 225.493 2155.33 189.316 2149.9 180.115C2143.61 169.461 2143.61 166.228 2149.9 163.951C2154.73 162.197 2157.76 149.209 2157.76 130.184V99.2589L2080.71 99.5042C2027.19 99.674 1997.15 102.58 1982.33 109.014ZM274.405 110.473C272.506 112.379 270.946 178.555 270.946 257.544V401.149H308.683H346.419V284.632V168.109L383.966 169.593C404.696 170.411 418.08 173.26 413.841 175.952C408.52 179.335 409.545 180.857 417.174 180.926C427.218 181.015 428.181 190.31 428.181 287.267C428.181 405.426 426.508 401.149 472.722 401.149H497.364L497.301 364.985C497.263 345.092 497.968 279.292 498.873 218.757L500.508 108.693L442.08 106.882C409.948 105.888 369.4 107.662 351.979 110.825C334.551 113.995 310.752 114.429 299.079 111.8C287.412 109.171 276.311 108.574 274.405 110.473ZM858.223 175.989C855.77 179.958 856.758 181.209 860.519 178.882C870.827 172.511 873.028 185.367 874.292 259.267C874.94 297.11 876.884 330.368 878.613 333.167C883.575 341.192 917.11 339.111 940.551 329.318C985.885 310.374 999.149 232.254 963.752 192.644C947.507 174.461 942.023 172.448 904.198 170.819C878.594 169.712 860.871 171.706 858.223 175.989ZM2009.48 176.618C2004.49 179.417 2000.52 191.052 2000.52 202.889C2000.52 231.833 2024.05 250.204 2061.12 250.204H2088.58V213.053V175.895L2053.51 173.744C2034.22 172.555 2014.41 173.851 2009.48 176.618ZM1958.19 267.141C1964.31 268.739 1972.8 268.632 1977.06 266.908C1981.32 265.185 1976.31 263.883 1965.93 264.009C1955.56 264.135 1952.07 265.544 1958.19 267.141Z" stroke="white" stroke-width="22" mask="url(#path-2-inside-2_29_2)"/>
</g>
<defs>
<clipPath id="clip0_29_2">
<rect width="2158" height="664" fill="white"/>
</clipPath>
</defs>
</svg>
