<svg width="256" height="256" viewBox="0 0 256 256" fill="none" xmlns="http://www.w3.org/2000/svg">
<path fill-rule="evenodd" clip-rule="evenodd" d="M125 0C55.9644 0 0 55.9644 0 125V142C0 204.96 51.0395 256 114 256H132C200.483 256 256 200.483 256 132V63C256 28.2061 227.794 0 193 0H125ZM37.1152 166.16C40.7205 167.339 44.8805 167.928 49.5952 167.928C53.2005 167.928 56.7712 167.339 60.3072 166.16C63.8432 165.051 67.1365 163.109 70.1872 160.336C73.3072 157.563 75.9419 153.853 78.0912 149.208L105.963 89.408H80.6912L65.1413 127.344L49.9072 89.408H23.6992L48.2432 142.24H59.0271C57.5932 145.468 55.8013 147.687 53.6512 148.896C51.5019 150.144 48.9712 150.768 46.0592 150.768C42.5232 150.768 39.2645 150.283 36.2832 149.312C33.3019 148.341 30.0779 146.747 26.6112 144.528V160.752C30.0779 163.248 33.5792 165.051 37.1152 166.16ZM106.883 148.48C108.894 149.589 111.112 150.144 113.539 150.144C116.035 150.144 118.254 149.589 120.195 148.48C122.206 147.301 123.766 145.707 124.875 143.696C126.054 141.685 126.643 139.467 126.643 137.04C126.643 134.544 126.054 132.325 124.875 130.384C123.766 128.373 122.206 126.813 120.195 125.704C118.254 124.525 116.035 123.936 113.539 123.936C111.112 123.936 108.894 124.525 106.883 125.704C104.872 126.813 103.278 128.373 102.099 130.384C100.99 132.325 100.435 134.544 100.435 137.04C100.435 139.467 100.99 141.685 102.099 143.696C103.278 145.707 104.872 147.301 106.883 148.48ZM159.138 89.408H135.322V166.16H159.138V138.612C161.61 142.045 164.592 144.815 168.082 146.92C172.519 149.485 177.581 150.768 183.266 150.768C189.09 150.768 194.186 149.451 198.554 146.816C202.991 144.181 206.423 140.507 208.85 135.792C211.346 131.008 212.594 125.496 212.594 119.256C212.594 112.877 211.346 107.331 208.85 102.616C206.423 97.832 202.991 94.1573 198.554 91.592C194.186 88.9573 189.09 87.64 183.266 87.64C177.65 87.64 172.623 88.9227 168.186 91.488C164.669 93.5212 161.653 96.2512 159.138 99.678V89.408ZM186.906 112.288C188.015 114.299 188.57 116.621 188.57 119.256C188.57 121.891 188.015 124.213 186.906 126.224C185.866 128.235 184.375 129.829 182.434 131.008C180.493 132.187 178.274 132.776 175.778 132.776C173.213 132.776 170.751 132.187 168.394 131.008C166.037 129.829 163.957 128.235 162.154 126.224C160.421 124.213 159.138 121.891 158.306 119.256C159.138 116.621 160.421 114.299 162.154 112.288C163.957 110.208 166.037 108.579 168.394 107.4C170.751 106.221 173.213 105.632 175.778 105.632C178.274 105.632 180.493 106.221 182.434 107.4C184.375 108.579 185.866 110.208 186.906 112.288ZM225.102 148.48C227.112 149.589 229.331 150.144 231.758 150.144C234.254 150.144 236.472 149.589 238.414 148.48C240.424 147.301 241.984 145.707 243.094 143.696C244.272 141.685 244.862 139.467 244.862 137.04C244.862 134.544 244.272 132.325 243.094 130.384C241.984 128.373 240.424 126.813 238.414 125.704C236.472 124.525 234.254 123.936 231.758 123.936C229.331 123.936 227.112 124.525 225.102 125.704C223.091 126.813 221.496 128.373 220.318 130.384C219.208 132.325 218.654 134.544 218.654 137.04C218.654 139.467 219.208 141.685 220.318 143.696C221.496 145.707 223.091 147.301 225.102 148.48Z" fill="#FFDB70"/>
</svg>
