<svg width="400" height="400" viewBox="0 0 400 400" fill="none" xmlns="http://www.w3.org/2000/svg">
<g clip-path="url(#clip0_86_7)">
<mask id="path-1-outside-1_86_7" maskUnits="userSpaceOnUse" x="4" y="69" width="335" height="266" fill="black">
<rect fill="white" x="4" y="69" width="335" height="266"/>
<path d="M28.928 114.472H62.464C66.2187 114.472 69.12 113.619 71.168 111.912C73.3013 110.205 74.368 107.731 74.368 104.488C74.368 101.245 73.3013 98.7707 71.168 97.064C69.12 95.3573 66.2187 94.504 62.464 94.504H24.704L38.144 80.68V169H8.32V73H66.944C74.368 73 80.896 74.3227 86.528 76.968C92.16 79.6133 96.5547 83.2827 99.712 87.976C102.869 92.6693 104.448 98.1733 104.448 104.488C104.448 110.632 102.869 116.093 99.712 120.872C96.5547 125.565 92.16 129.235 86.528 131.88C80.896 134.44 74.368 135.72 66.944 135.72H28.928V114.472ZM41.728 124.072H74.88L107.904 169H73.728L41.728 124.072ZM133.284 111.4H203.3V136.36H133.284V111.4ZM205.732 73V97.96H134.692L148.644 84.264V169H118.82V73H205.732ZM63.232 232C71.5947 232 78.7627 233.408 84.736 236.224C90.7947 239.04 95.4027 243.008 98.56 248.128C101.717 253.163 103.296 259.136 103.296 266.048C103.296 272.875 101.717 278.848 98.56 283.968C95.4027 289.088 90.7947 293.056 84.736 295.872C78.7627 298.688 71.5947 300.096 63.232 300.096H22.144V276.544H61.312C65.0667 276.544 67.968 275.605 70.016 273.728C72.1493 271.851 73.216 269.291 73.216 266.048C73.216 262.635 72.1493 260.032 70.016 258.24C67.968 256.448 65.0667 255.552 61.312 255.552H24.704L38.144 241.984V328H8.32V232H63.232ZM134.553 273.472H168.089C171.844 273.472 174.745 272.619 176.793 270.912C178.926 269.205 179.993 266.731 179.993 263.488C179.993 260.245 178.926 257.771 176.793 256.064C174.745 254.357 171.844 253.504 168.089 253.504H130.329L143.769 239.68V328H113.945V232H172.569C179.993 232 186.521 233.323 192.153 235.968C197.785 238.613 202.18 242.283 205.337 246.976C208.494 251.669 210.073 257.173 210.073 263.488C210.073 269.632 208.494 275.093 205.337 279.872C202.18 284.565 197.785 288.235 192.153 290.88C186.521 293.44 179.993 294.72 172.569 294.72H134.553V273.472ZM147.353 283.072H180.505L213.529 328H179.353L147.353 283.072ZM277.205 330.176C265.685 330.176 255.573 328.085 246.869 323.904C238.25 319.723 231.509 313.877 226.645 306.368C221.866 298.859 219.477 290.069 219.477 280C219.477 269.931 221.866 261.141 226.645 253.632C231.509 246.123 238.25 240.277 246.869 236.096C255.573 231.915 265.685 229.824 277.205 229.824C288.725 229.824 298.794 231.915 307.413 236.096C316.117 240.277 322.858 246.123 327.637 253.632C332.501 261.141 334.933 269.931 334.933 280C334.933 290.069 332.501 298.859 327.637 306.368C322.858 313.877 316.117 319.723 307.413 323.904C298.794 328.085 288.725 330.176 277.205 330.176ZM277.205 303.68C282.922 303.68 287.829 302.741 291.925 300.864C296.106 298.901 299.306 296.171 301.525 292.672C303.744 289.088 304.853 284.864 304.853 280C304.853 275.136 303.744 270.955 301.525 267.456C299.306 263.872 296.106 261.141 291.925 259.264C287.829 257.301 282.922 256.32 277.205 256.32C271.488 256.32 266.538 257.301 262.357 259.264C258.261 261.141 255.104 263.872 252.885 267.456C250.666 270.955 249.557 275.136 249.557 280C249.557 284.864 250.666 289.088 252.885 292.672C255.104 296.171 258.261 298.901 262.357 300.864C266.538 302.741 271.488 303.68 277.205 303.68Z"/>
</mask>
<path d="M28.928 114.472V110.472H24.928V114.472H28.928ZM71.168 111.912L68.6692 108.789L68.638 108.814L68.6073 108.839L71.168 111.912ZM71.168 97.064L68.6073 100.137L68.638 100.162L68.6692 100.187L71.168 97.064ZM24.704 94.504L21.836 91.7157L15.2363 98.504H24.704V94.504ZM38.144 80.68H42.144V70.8275L35.276 77.8917L38.144 80.68ZM38.144 169V173H42.144V169H38.144ZM8.32 169H4.32V173H8.32V169ZM8.32 73V69H4.32V73H8.32ZM86.528 76.968L88.2286 73.3475L88.2286 73.3475L86.528 76.968ZM99.712 120.872L103.031 123.105L103.04 123.091L103.049 123.077L99.712 120.872ZM86.528 131.88L88.1832 135.521L88.206 135.511L88.2286 135.501L86.528 131.88ZM28.928 135.72H24.928V139.72H28.928V135.72ZM41.728 124.072V120.072H33.9681L38.4699 126.393L41.728 124.072ZM74.88 124.072L78.103 121.703L76.9042 120.072H74.88V124.072ZM107.904 169V173H115.809L111.127 166.631L107.904 169ZM73.728 169L70.4699 171.321L71.6661 173H73.728V169ZM28.928 118.472H62.464V110.472H28.928V118.472ZM62.464 118.472C66.7774 118.472 70.7175 117.494 73.7287 114.985L68.6073 108.839C67.5225 109.743 65.6599 110.472 62.464 110.472V118.472ZM73.6668 115.035C76.9305 112.424 78.368 108.693 78.368 104.488H70.368C70.368 106.769 69.6721 107.986 68.6692 108.789L73.6668 115.035ZM78.368 104.488C78.368 100.283 76.9305 96.5515 73.6668 93.9405L68.6692 100.187C69.6721 100.99 70.368 102.207 70.368 104.488H78.368ZM73.7287 93.9911C70.7175 91.4817 66.7774 90.504 62.464 90.504V98.504C65.6599 98.504 67.5225 99.2329 68.6073 100.137L73.7287 93.9911ZM62.464 90.504H24.704V98.504H62.464V90.504ZM27.572 97.2923L41.012 83.4683L35.276 77.8917L21.836 91.7157L27.572 97.2923ZM34.144 80.68V169H42.144V80.68H34.144ZM38.144 165H8.32V173H38.144V165ZM12.32 169V73H4.32V169H12.32ZM8.32 77H66.944V69H8.32V77ZM66.944 77C73.8922 77 79.8204 78.2367 84.8275 80.5885L88.2286 73.3475C81.9716 70.4086 74.8438 69 66.944 69V77ZM84.8275 80.5885C89.8719 82.9579 93.6795 86.1749 96.3931 90.2087L103.031 85.7433C99.4299 80.3905 94.4481 76.2688 88.2286 73.3475L84.8275 80.5885ZM96.3931 90.2087C99.0557 94.1666 100.448 98.8727 100.448 104.488H108.448C108.448 97.474 106.683 91.172 103.031 85.7433L96.3931 90.2087ZM100.448 104.488C100.448 109.908 99.068 114.591 96.3747 118.667L103.049 123.077C106.671 117.596 108.448 111.356 108.448 104.488H100.448ZM96.3931 118.639C93.6795 122.673 89.8719 125.89 84.8275 128.259L88.2286 135.501C94.4481 132.579 99.4299 128.458 103.031 123.105L96.3931 118.639ZM84.8728 128.239C79.854 130.52 73.9093 131.72 66.944 131.72V139.72C74.8267 139.72 81.938 138.36 88.1832 135.521L84.8728 128.239ZM66.944 131.72H28.928V139.72H66.944V131.72ZM32.928 135.72V114.472H24.928V135.72H32.928ZM41.728 128.072H74.88V120.072H41.728V128.072ZM71.657 126.441L104.681 171.369L111.127 166.631L78.103 121.703L71.657 126.441ZM107.904 165H73.728V173H107.904V165ZM76.9861 166.679L44.9861 121.751L38.4699 126.393L70.4699 171.321L76.9861 166.679ZM133.284 111.4V107.4H129.284V111.4H133.284ZM203.3 111.4H207.3V107.4H203.3V111.4ZM203.3 136.36V140.36H207.3V136.36H203.3ZM133.284 136.36H129.284V140.36H133.284V136.36ZM205.732 73H209.732V69H205.732V73ZM205.732 97.96V101.96H209.732V97.96H205.732ZM134.692 97.96L131.89 95.1055L124.907 101.96H134.692V97.96ZM148.644 84.264H152.644V74.7322L145.842 81.4095L148.644 84.264ZM148.644 169V173H152.644V169H148.644ZM118.82 169H114.82V173H118.82V169ZM118.82 73V69H114.82V73H118.82ZM133.284 115.4H203.3V107.4H133.284V115.4ZM199.3 111.4V136.36H207.3V111.4H199.3ZM203.3 132.36H133.284V140.36H203.3V132.36ZM137.284 136.36V111.4H129.284V136.36H137.284ZM201.732 73V97.96H209.732V73H201.732ZM205.732 93.96H134.692V101.96H205.732V93.96ZM137.494 100.814L151.446 87.1185L145.842 81.4095L131.89 95.1055L137.494 100.814ZM144.644 84.264V169H152.644V84.264H144.644ZM148.644 165H118.82V173H148.644V165ZM122.82 169V73H114.82V169H122.82ZM118.82 77H205.732V69H118.82V77ZM84.736 236.224L83.0303 239.842L83.0402 239.847L83.0501 239.851L84.736 236.224ZM98.56 248.128L95.1553 250.228L95.1632 250.24L95.1712 250.253L98.56 248.128ZM84.736 295.872L83.0501 292.245L83.0402 292.249L83.0303 292.254L84.736 295.872ZM22.144 300.096H18.144V304.096H22.144V300.096ZM22.144 276.544V272.544H18.144V276.544H22.144ZM70.016 273.728L67.3735 270.725L67.343 270.752L67.3131 270.779L70.016 273.728ZM70.016 258.24L67.382 261.25L67.4123 261.277L67.4432 261.303L70.016 258.24ZM24.704 255.552L21.8622 252.737L15.1115 259.552H24.704V255.552ZM38.144 241.984H42.144V232.262L35.3022 239.169L38.144 241.984ZM38.144 328V332H42.144V328H38.144ZM8.32 328H4.32V332H8.32V328ZM8.32 232V228H4.32V232H8.32ZM63.232 236C71.1571 236 77.7128 237.335 83.0303 239.842L86.4417 232.606C79.8125 229.481 72.0322 228 63.232 228V236ZM83.0501 239.851C88.4802 242.375 92.4538 245.847 95.1553 250.228L101.965 246.028C98.3515 240.169 93.1092 235.705 86.422 232.597L83.0501 239.851ZM95.1712 250.253C97.8677 254.553 99.296 259.763 99.296 266.048H107.296C107.296 258.509 105.567 251.772 101.949 246.003L95.1712 250.253ZM99.296 266.048C99.296 272.236 97.873 277.461 95.1553 281.868L101.965 286.068C105.562 280.235 107.296 273.514 107.296 266.048H99.296ZM95.1553 281.868C92.4538 286.249 88.4802 289.721 83.0501 292.245L86.422 299.499C93.1092 296.391 98.3515 291.927 101.965 286.068L95.1553 281.868ZM83.0303 292.254C77.7128 294.761 71.1571 296.096 63.232 296.096V304.096C72.0322 304.096 79.8125 302.615 86.4417 299.49L83.0303 292.254ZM63.232 296.096H22.144V304.096H63.232V296.096ZM26.144 300.096V276.544H18.144V300.096H26.144ZM22.144 280.544H61.312V272.544H22.144V280.544ZM61.312 280.544C65.7105 280.544 69.7066 279.438 72.7189 276.677L67.3131 270.779C66.2294 271.773 64.4228 272.544 61.312 272.544V280.544ZM72.6585 276.731C75.7813 273.983 77.216 270.26 77.216 266.048H69.216C69.216 268.321 68.5174 269.719 67.3735 270.725L72.6585 276.731ZM77.216 266.048C77.216 261.744 75.8283 257.898 72.5888 255.177L67.4432 261.303C68.4703 262.166 69.216 263.525 69.216 266.048H77.216ZM72.65 255.23C69.6367 252.593 65.6674 251.552 61.312 251.552V259.552C64.4659 259.552 66.2993 260.303 67.382 261.25L72.65 255.23ZM61.312 251.552H24.704V259.552H61.312V251.552ZM27.5458 258.367L40.9858 244.799L35.3022 239.169L21.8622 252.737L27.5458 258.367ZM34.144 241.984V328H42.144V241.984H34.144ZM38.144 324H8.32V332H38.144V324ZM12.32 328V232H4.32V328H12.32ZM8.32 236H63.232V228H8.32V236ZM134.553 273.472V269.472H130.553V273.472H134.553ZM176.793 270.912L174.294 267.789L174.263 267.814L174.232 267.839L176.793 270.912ZM176.793 256.064L174.232 259.137L174.263 259.162L174.294 259.187L176.793 256.064ZM130.329 253.504L127.461 250.716L120.861 257.504H130.329V253.504ZM143.769 239.68H147.769V229.827L140.901 236.892L143.769 239.68ZM143.769 328V332H147.769V328H143.769ZM113.945 328H109.945V332H113.945V328ZM113.945 232V228H109.945V232H113.945ZM192.153 235.968L193.854 232.347L193.854 232.347L192.153 235.968ZM205.337 279.872L208.656 282.105L208.665 282.091L208.674 282.077L205.337 279.872ZM192.153 290.88L193.808 294.521L193.831 294.511L193.854 294.501L192.153 290.88ZM134.553 294.72H130.553V298.72H134.553V294.72ZM147.353 283.072V279.072H139.593L144.095 285.393L147.353 283.072ZM180.505 283.072L183.728 280.703L182.529 279.072H180.505V283.072ZM213.529 328V332H221.434L216.752 325.631L213.529 328ZM179.353 328L176.095 330.321L177.291 332H179.353V328ZM134.553 277.472H168.089V269.472H134.553V277.472ZM168.089 277.472C172.402 277.472 176.342 276.494 179.354 273.985L174.232 267.839C173.148 268.743 171.285 269.472 168.089 269.472V277.472ZM179.292 274.035C182.556 271.424 183.993 267.693 183.993 263.488H175.993C175.993 265.769 175.297 266.986 174.294 267.789L179.292 274.035ZM183.993 263.488C183.993 259.283 182.556 255.552 179.292 252.941L174.294 259.187C175.297 259.99 175.993 261.207 175.993 263.488H183.993ZM179.354 252.991C176.342 250.482 172.402 249.504 168.089 249.504V257.504C171.285 257.504 173.148 258.233 174.232 259.137L179.354 252.991ZM168.089 249.504H130.329V257.504H168.089V249.504ZM133.197 256.292L146.637 242.468L140.901 236.892L127.461 250.716L133.197 256.292ZM139.769 239.68V328H147.769V239.68H139.769ZM143.769 324H113.945V332H143.769V324ZM117.945 328V232H109.945V328H117.945ZM113.945 236H172.569V228H113.945V236ZM172.569 236C179.517 236 185.445 237.237 190.452 239.589L193.854 232.347C187.597 229.409 180.469 228 172.569 228V236ZM190.452 239.589C195.497 241.958 199.304 245.175 202.018 249.209L208.656 244.743C205.055 239.39 200.073 235.269 193.854 232.347L190.452 239.589ZM202.018 249.209C204.681 253.167 206.073 257.873 206.073 263.488H214.073C214.073 256.474 212.308 250.172 208.656 244.743L202.018 249.209ZM206.073 263.488C206.073 268.908 204.693 273.591 202 277.667L208.674 282.077C212.296 276.596 214.073 270.356 214.073 263.488H206.073ZM202.018 277.639C199.304 281.673 195.497 284.89 190.452 287.259L193.854 294.501C200.073 291.579 205.055 287.458 208.656 282.105L202.018 277.639ZM190.498 287.239C185.479 289.52 179.534 290.72 172.569 290.72V298.72C180.452 298.72 187.563 297.36 193.808 294.521L190.498 287.239ZM172.569 290.72H134.553V298.72H172.569V290.72ZM138.553 294.72V273.472H130.553V294.72H138.553ZM147.353 287.072H180.505V279.072H147.353V287.072ZM177.282 285.441L210.306 330.369L216.752 325.631L183.728 280.703L177.282 285.441ZM213.529 324H179.353V332H213.529V324ZM182.611 325.679L150.611 280.751L144.095 285.393L176.095 330.321L182.611 325.679ZM246.869 323.904L245.123 327.503L245.13 327.506L245.137 327.51L246.869 323.904ZM226.645 306.368L223.27 308.516L223.279 308.529L223.288 308.543L226.645 306.368ZM226.645 253.632L223.288 251.457L223.279 251.471L223.27 251.484L226.645 253.632ZM246.869 236.096L245.137 232.49L245.13 232.494L245.123 232.497L246.869 236.096ZM307.413 236.096L305.667 239.695L305.674 239.698L305.681 239.702L307.413 236.096ZM327.637 253.632L324.262 255.779L324.271 255.793L324.28 255.807L327.637 253.632ZM327.637 306.368L324.28 304.193L324.271 304.207L324.262 304.22L327.637 306.368ZM307.413 323.904L305.681 320.298L305.674 320.302L305.667 320.305L307.413 323.904ZM291.925 300.864L293.592 304.5L293.608 304.493L293.625 304.485L291.925 300.864ZM301.525 292.672L304.903 294.814L304.915 294.796L304.926 294.777L301.525 292.672ZM301.525 267.456L298.124 269.561L298.135 269.58L298.147 269.598L301.525 267.456ZM291.925 259.264L290.197 262.871L290.241 262.893L290.287 262.913L291.925 259.264ZM262.357 259.264L264.024 262.9L264.04 262.893L264.057 262.885L262.357 259.264ZM252.885 267.456L256.263 269.598L256.275 269.58L256.286 269.561L252.885 267.456ZM252.885 292.672L249.484 294.777L249.495 294.796L249.507 294.814L252.885 292.672ZM262.357 300.864L260.629 304.471L260.673 304.493L260.719 304.513L262.357 300.864ZM277.205 326.176C266.17 326.176 256.67 324.175 248.601 320.298L245.137 327.51C254.476 331.996 265.2 334.176 277.205 334.176V326.176ZM248.615 320.305C240.605 316.419 234.441 311.046 230.002 304.193L223.288 308.543C228.577 316.708 235.896 323.026 245.123 327.503L248.615 320.305ZM230.02 304.22C225.701 297.434 223.477 289.411 223.477 280H215.477C215.477 290.727 218.031 300.283 223.27 308.516L230.02 304.22ZM223.477 280C223.477 270.589 225.701 262.566 230.02 255.779L223.27 251.484C218.031 259.717 215.477 269.273 215.477 280H223.477ZM230.002 255.807C234.441 248.954 240.605 243.581 248.615 239.695L245.123 232.497C235.896 236.974 228.577 243.292 223.288 251.457L230.002 255.807ZM248.601 239.702C256.67 235.825 266.17 233.824 277.205 233.824V225.824C265.2 225.824 254.476 228.004 245.137 232.49L248.601 239.702ZM277.205 233.824C288.241 233.824 297.692 235.826 305.667 239.695L309.159 232.497C299.897 228.004 289.209 225.824 277.205 225.824V233.824ZM305.681 239.702C313.771 243.588 319.918 248.953 324.262 255.779L331.012 251.484C325.798 243.292 318.463 236.967 309.145 232.49L305.681 239.702ZM324.28 255.807C328.673 262.589 330.933 270.602 330.933 280H338.933C338.933 269.259 336.329 259.693 330.994 251.457L324.28 255.807ZM330.933 280C330.933 289.398 328.673 297.411 324.28 304.193L330.994 308.543C336.329 300.307 338.933 290.741 338.933 280H330.933ZM324.262 304.22C319.918 311.047 313.771 316.412 305.681 320.298L309.145 327.51C318.463 323.033 325.798 316.708 331.012 308.516L324.262 304.22ZM305.667 320.305C297.692 324.174 288.241 326.176 277.205 326.176V334.176C289.209 334.176 299.897 331.996 309.159 327.503L305.667 320.305ZM277.205 307.68C283.348 307.68 288.852 306.673 293.592 304.5L290.258 297.228C286.806 298.81 282.497 299.68 277.205 299.68V307.68ZM293.625 304.485C298.413 302.237 302.231 299.028 304.903 294.814L298.147 290.53C296.382 293.314 293.8 295.565 290.225 297.243L293.625 304.485ZM304.926 294.777C307.593 290.469 308.853 285.491 308.853 280H300.853C300.853 284.237 299.894 287.707 298.124 290.567L304.926 294.777ZM308.853 280C308.853 274.512 307.594 269.558 304.903 265.314L298.147 269.598C299.893 272.352 300.853 275.76 300.853 280H308.853ZM304.926 265.351C302.25 261.028 298.407 257.789 293.563 255.615L290.287 262.913C293.806 264.493 296.362 266.716 298.124 269.561L304.926 265.351ZM293.653 255.657C288.897 253.378 283.37 252.32 277.205 252.32V260.32C282.475 260.32 286.761 261.225 290.197 262.871L293.653 255.657ZM277.205 252.32C271.036 252.32 265.481 253.379 260.657 255.643L264.057 262.885C267.595 261.224 271.939 260.32 277.205 260.32V252.32ZM260.69 255.628C255.93 257.81 252.146 261.05 249.484 265.351L256.286 269.561C258.061 266.694 260.592 264.473 264.024 262.9L260.69 255.628ZM249.507 265.314C246.816 269.558 245.557 274.512 245.557 280H253.557C253.557 275.76 254.517 272.352 256.263 269.598L249.507 265.314ZM245.557 280C245.557 285.491 246.817 290.469 249.484 294.777L256.286 290.567C254.516 287.707 253.557 284.237 253.557 280H245.557ZM249.507 294.814C252.166 299.007 255.924 302.217 260.629 304.471L264.085 297.257C260.598 295.586 258.042 293.335 256.263 290.53L249.507 294.814ZM260.719 304.513C265.526 306.671 271.059 307.68 277.205 307.68V299.68C271.917 299.68 267.551 298.811 263.995 297.215L260.719 304.513Z" fill="white" mask="url(#path-1-outside-1_86_7)"/>
</g>
<defs>
<clipPath id="clip0_86_7">
<rect width="400" height="400" fill="white"/>
</clipPath>
</defs>
</svg>
