<svg width="392" height="310" viewBox="0 0 392 310" fill="none" xmlns="http://www.w3.org/2000/svg">
<mask id="path-1-outside-1_67_3" maskUnits="userSpaceOnUse" x="0" y="0" width="392" height="310" fill="black">
<rect fill="white" width="392" height="310"/>
<path d="M28.9 53.1H68.2C72.6 53.1 76 52.1 78.4 50.1C80.9 48.1 82.15 45.2 82.15 41.4C82.15 37.6 80.9 34.7 78.4 32.7C76 30.7 72.6 29.7 68.2 29.7H23.95L39.7 13.5V117H4.75V4.49999H73.45C82.15 4.49999 89.8 6.04999 96.4 9.14999C103 12.25 108.15 16.55 111.85 22.05C115.55 27.55 117.4 34 117.4 41.4C117.4 48.6 115.55 55 111.85 60.6C108.15 66.1 103 70.4 96.4 73.5C89.8 76.5 82.15 78 73.45 78H28.9V53.1ZM43.9 64.35H82.75L121.45 117H81.4L43.9 64.35ZM151.192 49.5H233.242V78.75H151.192V49.5ZM236.092 4.49999V33.75H152.842L169.192 17.7V117H134.242V4.49999H236.092ZM69.1 190.5C78.9 190.5 87.3 192.15 94.3 195.45C101.4 198.75 106.8 203.4 110.5 209.4C114.2 215.3 116.05 222.3 116.05 230.4C116.05 238.4 114.2 245.4 110.5 251.4C106.8 257.4 101.4 262.05 94.3 265.35C87.3 268.65 78.9 270.3 69.1 270.3H20.95V242.7H66.85C71.25 242.7 74.65 241.6 77.05 239.4C79.55 237.2 80.8 234.2 80.8 230.4C80.8 226.4 79.55 223.35 77.05 221.25C74.65 219.15 71.25 218.1 66.85 218.1H23.95L39.7 202.2V303H4.75V190.5H69.1ZM152.679 239.1H191.979C196.379 239.1 199.779 238.1 202.179 236.1C204.679 234.1 205.929 231.2 205.929 227.4C205.929 223.6 204.679 220.7 202.179 218.7C199.779 216.7 196.379 215.7 191.979 215.7H147.729L163.479 199.5V303H128.529V190.5H197.229C205.929 190.5 213.579 192.05 220.179 195.15C226.779 198.25 231.929 202.55 235.629 208.05C239.329 213.55 241.179 220 241.179 227.4C241.179 234.6 239.329 241 235.629 246.6C231.929 252.1 226.779 256.4 220.179 259.5C213.579 262.5 205.929 264 197.229 264H152.679V239.1ZM167.679 250.35H206.529L245.229 303H205.179L167.679 250.35ZM319.85 305.55C306.35 305.55 294.5 303.1 284.3 298.2C274.2 293.3 266.3 286.45 260.6 277.65C255 268.85 252.2 258.55 252.2 246.75C252.2 234.95 255 224.65 260.6 215.85C266.3 207.05 274.2 200.2 284.3 195.3C294.5 190.4 306.35 187.95 319.85 187.95C333.35 187.95 345.15 190.4 355.25 195.3C365.45 200.2 373.35 207.05 378.95 215.85C384.65 224.65 387.5 234.95 387.5 246.75C387.5 258.55 384.65 268.85 378.95 277.65C373.35 286.45 365.45 293.3 355.25 298.2C345.15 303.1 333.35 305.55 319.85 305.55ZM319.85 274.5C326.55 274.5 332.3 273.4 337.1 271.2C342 268.9 345.75 265.7 348.35 261.6C350.95 257.4 352.25 252.45 352.25 246.75C352.25 241.05 350.95 236.15 348.35 232.05C345.75 227.85 342 224.65 337.1 222.45C332.3 220.15 326.55 219 319.85 219C313.15 219 307.35 220.15 302.45 222.45C297.65 224.65 293.95 227.85 291.35 232.05C288.75 236.15 287.45 241.05 287.45 246.75C287.45 252.45 288.75 257.4 291.35 261.6C293.95 265.7 297.65 268.9 302.45 271.2C307.35 273.4 313.15 274.5 319.85 274.5Z"/>
</mask>
<path d="M28.9 53.1V49.1H24.9V53.1H28.9ZM78.4 50.1L75.9012 46.9765L75.87 47.0015L75.8393 47.0271L78.4 50.1ZM78.4 32.7L75.8393 35.7729L75.87 35.7985L75.9012 35.8235L78.4 32.7ZM23.95 29.7L21.082 26.9117L14.4823 33.7H23.95V29.7ZM39.7 13.5H43.7V3.64747L36.832 10.7117L39.7 13.5ZM39.7 117V121H43.7V117H39.7ZM4.75 117H0.750001V121H4.75V117ZM4.75 4.49999V0.499991H0.750001V4.49999H4.75ZM96.4 9.14999L98.1006 5.52948L98.1006 5.52948L96.4 9.14999ZM111.85 60.6L115.169 62.8327L115.178 62.8189L115.187 62.805L111.85 60.6ZM96.4 73.5L98.0552 77.1415L98.078 77.1311L98.1006 77.1205L96.4 73.5ZM28.9 78H24.9V82H28.9V78ZM43.9 64.35V60.35H36.1401L40.6419 66.6706L43.9 64.35ZM82.75 64.35L85.973 61.981L84.7742 60.35H82.75V64.35ZM121.45 117V121H129.355L124.673 114.631L121.45 117ZM81.4 117L78.1419 119.321L79.3381 121H81.4V117ZM28.9 57.1H68.2V49.1H28.9V57.1ZM68.2 57.1C73.1587 57.1 77.5975 55.9756 80.9607 53.1729L75.8393 47.0271C74.4025 48.2244 72.0413 49.1 68.2 49.1V57.1ZM80.8988 53.2235C84.5292 50.3191 86.15 46.1619 86.15 41.4H78.15C78.15 44.2381 77.2708 45.8809 75.9012 46.9765L80.8988 53.2235ZM86.15 41.4C86.15 36.6381 84.5292 32.4809 80.8988 29.5765L75.9012 35.8235C77.2708 36.9191 78.15 38.5619 78.15 41.4H86.15ZM80.9607 29.6271C77.5975 26.8244 73.1587 25.7 68.2 25.7V33.7C72.0413 33.7 74.4025 34.5756 75.8393 35.7729L80.9607 29.6271ZM68.2 25.7H23.95V33.7H68.2V25.7ZM26.818 32.4883L42.568 16.2883L36.832 10.7117L21.082 26.9117L26.818 32.4883ZM35.7 13.5V117H43.7V13.5H35.7ZM39.7 113H4.75V121H39.7V113ZM8.75 117V4.49999H0.750001V117H8.75ZM4.75 8.49999H73.45V0.499991H4.75V8.49999ZM73.45 8.49999C81.6742 8.49999 88.7244 9.96406 94.6995 12.7705L98.1006 5.52948C90.8756 2.13593 82.6258 0.499991 73.45 0.499991V8.49999ZM94.6995 12.7705C100.712 15.5945 105.275 19.4422 108.531 24.2827L115.169 19.8173C111.025 13.6578 105.288 8.90544 98.1006 5.52948L94.6995 12.7705ZM108.531 24.2827C111.736 29.0473 113.4 34.6993 113.4 41.4H121.4C121.4 33.3007 119.364 26.0527 115.169 19.8173L108.531 24.2827ZM113.4 41.4C113.4 47.8757 111.749 53.4973 108.513 58.395L115.187 62.805C119.351 56.5027 121.4 49.3243 121.4 41.4H113.4ZM108.531 58.3673C105.275 63.2078 100.712 67.0554 94.6995 69.8795L98.1006 77.1205C105.288 73.7445 111.025 68.9922 115.169 62.8327L108.531 58.3673ZM94.7448 69.8585C88.758 72.5798 81.6913 74 73.45 74V82C82.6087 82 90.842 80.4202 98.0552 77.1415L94.7448 69.8585ZM73.45 74H28.9V82H73.45V74ZM32.9 78V53.1H24.9V78H32.9ZM43.9 68.35H82.75V60.35H43.9V68.35ZM79.527 66.719L118.227 119.369L124.673 114.631L85.973 61.981L79.527 66.719ZM121.45 113H81.4V121H121.45V113ZM84.6581 114.679L47.1581 62.0294L40.6419 66.6706L78.1419 119.321L84.6581 114.679ZM151.192 49.5V45.5H147.192V49.5H151.192ZM233.242 49.5H237.242V45.5H233.242V49.5ZM233.242 78.75V82.75H237.242V78.75H233.242ZM151.192 78.75H147.192V82.75H151.192V78.75ZM236.092 4.49999H240.092V0.499991H236.092V4.49999ZM236.092 33.75V37.75H240.092V33.75H236.092ZM152.842 33.75L150.04 30.8955L143.057 37.75H152.842V33.75ZM169.192 17.7H173.192V8.16819L166.39 14.8455L169.192 17.7ZM169.192 117V121H173.192V117H169.192ZM134.242 117H130.242V121H134.242V117ZM134.242 4.49999V0.499991H130.242V4.49999H134.242ZM151.192 53.5H233.242V45.5H151.192V53.5ZM229.242 49.5V78.75H237.242V49.5H229.242ZM233.242 74.75H151.192V82.75H233.242V74.75ZM155.192 78.75V49.5H147.192V78.75H155.192ZM232.092 4.49999V33.75H240.092V4.49999H232.092ZM236.092 29.75H152.842V37.75H236.092V29.75ZM155.644 36.6045L171.994 20.5545L166.39 14.8455L150.04 30.8955L155.644 36.6045ZM165.192 17.7V117H173.192V17.7H165.192ZM169.192 113H134.242V121H169.192V113ZM138.242 117V4.49999H130.242V117H138.242ZM134.242 8.49999H236.092V0.499991H134.242V8.49999ZM94.3 195.45L92.5943 199.068L92.6042 199.073L92.6141 199.077L94.3 195.45ZM110.5 209.4L107.095 211.5L107.103 211.512L107.111 211.525L110.5 209.4ZM94.3 265.35L92.6141 261.723L92.6042 261.727L92.5943 261.732L94.3 265.35ZM20.95 270.3H16.95V274.3H20.95V270.3ZM20.95 242.7V238.7H16.95V242.7H20.95ZM77.05 239.4L74.4075 236.397L74.377 236.424L74.3471 236.451L77.05 239.4ZM77.05 221.25L74.416 224.26L74.4464 224.287L74.4772 224.313L77.05 221.25ZM23.95 218.1L21.1082 215.285L14.3575 222.1H23.95V218.1ZM39.7 202.2H43.7V192.478L36.8582 199.385L39.7 202.2ZM39.7 303V307H43.7V303H39.7ZM4.75 303H0.750001V307H4.75V303ZM4.75 190.5V186.5H0.750001V190.5H4.75ZM69.1 194.5C78.4624 194.5 86.2502 196.077 92.5943 199.068L96.0057 191.832C88.3498 188.223 79.3376 186.5 69.1 186.5V194.5ZM92.6141 199.077C99.0855 202.085 103.851 206.239 107.095 211.5L113.905 207.3C109.749 200.561 103.715 195.415 95.986 191.823L92.6141 199.077ZM107.111 211.525C110.35 216.69 112.05 222.927 112.05 230.4H120.05C120.05 221.673 118.05 213.91 113.889 207.275L107.111 211.525ZM112.05 230.4C112.05 237.761 110.356 244.013 107.095 249.3L113.905 253.5C118.044 246.787 120.05 239.039 120.05 230.4H112.05ZM107.095 249.3C103.851 254.561 99.0855 258.715 92.6141 261.723L95.986 268.977C103.715 265.385 109.749 260.239 113.905 253.5L107.095 249.3ZM92.5943 261.732C86.2502 264.723 78.4624 266.3 69.1 266.3V274.3C79.3376 274.3 88.3498 272.577 96.0057 268.968L92.5943 261.732ZM69.1 266.3H20.95V274.3H69.1V266.3ZM24.95 270.3V242.7H16.95V270.3H24.95ZM20.95 246.7H66.85V238.7H20.95V246.7ZM66.85 246.7C71.8938 246.7 76.3886 245.433 79.7529 242.349L74.3471 236.451C72.9114 237.767 70.6062 238.7 66.85 238.7V246.7ZM79.6925 242.403C83.182 239.332 84.8 235.169 84.8 230.4H76.8C76.8 233.231 75.918 235.068 74.4075 236.397L79.6925 242.403ZM84.8 230.4C84.8 225.509 83.229 221.216 79.6228 218.187L74.4772 224.313C75.871 225.484 76.8 227.291 76.8 230.4H84.8ZM79.684 218.24C76.3187 215.295 71.8507 214.1 66.85 214.1V222.1C70.6493 222.1 72.9813 223.005 74.416 224.26L79.684 218.24ZM66.85 214.1H23.95V222.1H66.85V214.1ZM26.7918 220.915L42.5418 205.015L36.8582 199.385L21.1082 215.285L26.7918 220.915ZM35.7 202.2V303H43.7V202.2H35.7ZM39.7 299H4.75V307H39.7V299ZM8.75 303V190.5H0.750001V303H8.75ZM4.75 194.5H69.1V186.5H4.75V194.5ZM152.679 239.1V235.1H148.679V239.1H152.679ZM202.179 236.1L199.681 232.977L199.649 233.002L199.619 233.027L202.179 236.1ZM202.179 218.7L199.619 221.773L199.649 221.798L199.681 221.823L202.179 218.7ZM147.729 215.7L144.861 212.912L138.262 219.7H147.729V215.7ZM163.479 199.5H167.479V189.647L160.611 196.712L163.479 199.5ZM163.479 303V307H167.479V303H163.479ZM128.529 303H124.529V307H128.529V303ZM128.529 190.5V186.5H124.529V190.5H128.529ZM220.179 195.15L221.88 191.529L221.88 191.529L220.179 195.15ZM235.629 246.6L238.948 248.833L238.957 248.819L238.967 248.805L235.629 246.6ZM220.179 259.5L221.835 263.141L221.857 263.131L221.88 263.121L220.179 259.5ZM152.679 264H148.679V268H152.679V264ZM167.679 250.35V246.35H159.919L164.421 252.671L167.679 250.35ZM206.529 250.35L209.752 247.981L208.553 246.35H206.529V250.35ZM245.229 303V307H253.134L248.452 300.631L245.229 303ZM205.179 303L201.921 305.321L203.117 307H205.179V303ZM152.679 243.1H191.979V235.1H152.679V243.1ZM191.979 243.1C196.938 243.1 201.377 241.976 204.74 239.173L199.619 233.027C198.182 234.224 195.821 235.1 191.979 235.1V243.1ZM204.678 239.223C208.309 236.319 209.929 232.162 209.929 227.4H201.929C201.929 230.238 201.05 231.881 199.681 232.977L204.678 239.223ZM209.929 227.4C209.929 222.638 208.309 218.481 204.678 215.577L199.681 221.823C201.05 222.919 201.929 224.562 201.929 227.4H209.929ZM204.74 215.627C201.377 212.824 196.938 211.7 191.979 211.7V219.7C195.821 219.7 198.182 220.576 199.619 221.773L204.74 215.627ZM191.979 211.7H147.729V219.7H191.979V211.7ZM150.597 218.488L166.347 202.288L160.611 196.712L144.861 212.912L150.597 218.488ZM159.479 199.5V303H167.479V199.5H159.479ZM163.479 299H128.529V307H163.479V299ZM132.529 303V190.5H124.529V303H132.529ZM128.529 194.5H197.229V186.5H128.529V194.5ZM197.229 194.5C205.454 194.5 212.504 195.964 218.479 198.771L221.88 191.529C214.655 188.136 206.405 186.5 197.229 186.5V194.5ZM218.479 198.771C224.491 201.595 229.054 205.442 232.31 210.283L238.948 205.817C234.805 199.658 229.067 194.905 221.88 191.529L218.479 198.771ZM232.31 210.283C235.516 215.047 237.179 220.699 237.179 227.4H245.179C245.179 219.301 243.143 212.053 238.948 205.817L232.31 210.283ZM237.179 227.4C237.179 233.876 235.528 239.497 232.292 244.395L238.967 248.805C243.131 242.503 245.179 235.324 245.179 227.4H237.179ZM232.31 244.367C229.054 249.208 224.491 253.055 218.479 255.879L221.88 263.121C229.067 259.745 234.805 254.992 238.948 248.833L232.31 244.367ZM218.524 255.859C212.537 258.58 205.471 260 197.229 260V268C206.388 268 214.621 266.42 221.835 263.141L218.524 255.859ZM197.229 260H152.679V268H197.229V260ZM156.679 264V239.1H148.679V264H156.679ZM167.679 254.35H206.529V246.35H167.679V254.35ZM203.306 252.719L242.006 305.369L248.452 300.631L209.752 247.981L203.306 252.719ZM245.229 299H205.179V307H245.229V299ZM208.437 300.679L170.937 248.029L164.421 252.671L201.921 305.321L208.437 300.679ZM284.3 298.2L282.554 301.799L282.561 301.802L282.568 301.806L284.3 298.2ZM260.6 277.65L257.225 279.798L257.234 279.811L257.242 279.825L260.6 277.65ZM260.6 215.85L257.242 213.675L257.234 213.689L257.225 213.702L260.6 215.85ZM284.3 195.3L282.568 191.694L282.561 191.698L282.554 191.701L284.3 195.3ZM355.25 195.3L353.504 198.899L353.511 198.902L353.518 198.906L355.25 195.3ZM378.95 215.85L375.575 217.997L375.584 218.011L375.592 218.025L378.95 215.85ZM378.95 277.65L375.592 275.475L375.584 275.489L375.575 275.502L378.95 277.65ZM355.25 298.2L353.518 294.594L353.511 294.598L353.504 294.601L355.25 298.2ZM337.1 271.2L338.766 274.836L338.783 274.829L338.799 274.821L337.1 271.2ZM348.35 261.6L351.728 263.742L351.739 263.724L351.751 263.705L348.35 261.6ZM348.35 232.05L344.949 234.155L344.96 234.174L344.972 234.192L348.35 232.05ZM337.1 222.45L335.371 226.057L335.416 226.079L335.461 226.099L337.1 222.45ZM302.45 222.45L304.116 226.086L304.133 226.079L304.149 226.071L302.45 222.45ZM291.35 232.05L294.728 234.192L294.739 234.174L294.751 234.155L291.35 232.05ZM291.35 261.6L287.949 263.705L287.96 263.724L287.972 263.742L291.35 261.6ZM302.45 271.2L300.721 274.807L300.766 274.829L300.811 274.849L302.45 271.2ZM319.85 301.55C306.835 301.55 295.597 299.189 286.032 294.594L282.568 301.806C293.402 307.011 305.864 309.55 319.85 309.55V301.55ZM286.046 294.601C276.554 289.997 269.232 283.619 263.957 275.475L257.242 279.825C263.368 289.281 271.845 296.603 282.554 301.799L286.046 294.601ZM263.974 275.502C258.835 267.426 256.2 257.892 256.2 246.75H248.2C248.2 259.208 251.165 270.274 257.225 279.798L263.974 275.502ZM256.2 246.75C256.2 235.608 258.835 226.074 263.974 217.997L257.225 213.702C251.165 223.226 248.2 234.292 248.2 246.75H256.2ZM263.957 218.025C269.232 209.881 276.554 203.503 286.046 198.899L282.554 191.701C271.845 196.897 263.368 204.219 257.242 213.675L263.957 218.025ZM286.032 198.906C295.597 194.311 306.835 191.95 319.85 191.95V183.95C305.864 183.95 293.402 186.489 282.568 191.694L286.032 198.906ZM319.85 191.95C332.866 191.95 344.047 194.311 353.504 198.899L356.996 191.701C346.252 186.489 333.834 183.95 319.85 183.95V191.95ZM353.518 198.906C363.104 203.511 370.41 209.881 375.575 217.997L382.324 213.702C376.29 204.219 367.795 196.889 356.982 191.694L353.518 198.906ZM375.592 218.025C380.822 226.098 383.5 235.622 383.5 246.75H391.5C391.5 234.278 388.478 223.202 382.307 213.675L375.592 218.025ZM383.5 246.75C383.5 257.878 380.822 267.402 375.592 275.475L382.307 279.825C388.478 270.298 391.5 259.222 391.5 246.75H383.5ZM375.575 275.502C370.41 283.619 363.104 289.989 353.518 294.594L356.982 301.806C367.795 296.611 376.29 289.281 382.324 279.798L375.575 275.502ZM353.504 294.601C344.047 299.189 332.866 301.55 319.85 301.55V309.55C333.834 309.55 346.252 307.011 356.996 301.799L353.504 294.601ZM319.85 278.5C326.975 278.5 333.323 277.331 338.766 274.836L335.433 267.564C331.277 269.469 326.124 270.5 319.85 270.5V278.5ZM338.799 274.821C344.306 272.236 348.674 268.557 351.728 263.742L344.972 259.458C342.825 262.843 339.693 265.564 335.4 267.579L338.799 274.821ZM351.751 263.705C354.799 258.781 356.25 253.077 356.25 246.75H348.25C348.25 251.823 347.1 256.019 344.949 259.495L351.751 263.705ZM356.25 246.75C356.25 240.426 354.8 234.753 351.728 229.908L344.972 234.192C347.099 237.547 348.25 241.674 348.25 246.75H356.25ZM351.751 229.945C348.694 225.006 344.3 221.298 338.738 218.801L335.461 226.099C339.699 228.002 342.806 230.694 344.949 234.155L351.751 229.945ZM338.828 218.843C333.368 216.226 326.997 215 319.85 215V223C326.102 223 331.232 224.074 335.371 226.057L338.828 218.843ZM319.85 215C312.698 215 306.293 216.227 300.75 218.829L304.149 226.071C308.406 224.073 313.601 223 319.85 223V215ZM300.783 218.814C295.319 221.318 290.992 225.028 287.949 229.945L294.751 234.155C296.907 230.672 299.981 227.982 304.116 226.086L300.783 218.814ZM287.972 229.908C284.899 234.753 283.45 240.426 283.45 246.75H291.45C291.45 241.674 292.6 237.547 294.728 234.192L287.972 229.908ZM283.45 246.75C283.45 253.077 284.9 258.781 287.949 263.705L294.751 259.495C292.599 256.019 291.45 251.823 291.45 246.75H283.45ZM287.972 263.742C291.011 268.536 295.312 272.216 300.721 274.807L304.178 267.593C299.987 265.584 296.888 262.864 294.728 259.458L287.972 263.742ZM300.811 274.849C306.337 277.33 312.72 278.5 319.85 278.5V270.5C313.579 270.5 308.362 269.47 304.088 267.551L300.811 274.849Z" fill="white" mask="url(#path-1-outside-1_67_3)"/>
</svg>
