<svg width="400" height="400" viewBox="0 0 400 400" fill="none" xmlns="http://www.w3.org/2000/svg">
<mask id="path-1-inside-1_28_2" fill="white">
<path fill-rule="evenodd" clip-rule="evenodd" d="M344.54 29.3858C343.3 31.3893 345.025 33.4088 347.977 33.4088C350.429 33.4088 350.584 34.4857 350.584 51.5123C350.584 66.7099 350.908 69.6158 352.599 69.6158C354.29 69.6158 354.614 66.7099 354.614 51.5123C354.614 34.8518 354.81 33.4088 357.076 33.4088C360.246 33.4088 361.328 32.2811 360.422 29.9249C359.571 27.7096 345.866 27.2443 344.54 29.3858ZM364.934 28.9165C364.43 29.4207 364.017 38.7836 364.017 49.7248C364.017 66.5114 364.331 69.6158 366.032 69.6158C367.63 69.6158 368.046 67.6794 368.046 60.2288V50.8418H372.076H376.106V60.2288C376.106 67.6794 376.522 69.6158 378.121 69.6158C379.825 69.6158 380.136 66.4001 380.136 48.719C380.136 32.6002 379.751 27.947 378.456 28.3734C377.422 28.714 376.52 32.4862 376.106 38.2069C375.466 47.0347 375.27 47.4893 372.076 47.4893C368.881 47.4893 368.698 47.0683 368.311 38.7728C367.916 30.291 366.805 27.0485 364.934 28.9165ZM385.061 28.9393C384.568 29.4301 384.165 38.8171 384.165 49.7972V69.7633L390.23 69.3543C396.96 68.9011 399.008 66.502 393.232 65.8396C389.707 65.4346 389.538 65.0806 389.538 58.1288C389.538 51.2495 389.726 50.8418 392.896 50.8418C397.075 50.8418 397.344 48.5004 393.232 47.9185C390.599 47.5443 390.157 46.5828 389.804 40.4491C389.415 33.6891 389.534 33.4088 392.826 33.4088C395.358 33.4088 396.254 32.7088 396.254 30.7268C396.254 28.5115 395.358 28.0448 391.106 28.0448C388.273 28.0448 385.553 28.4471 385.061 28.9393ZM359.315 75.7965C352.677 77.4634 348.956 79.6572 346.184 83.5381C343.288 87.5906 343.184 88.9061 342.786 126.245C342.401 162.161 342.553 165.174 345.018 170.738C348.968 179.653 353.466 181.548 370.733 181.57C387.746 181.593 392.573 179.515 397.224 170.159C399.97 164.638 400.185 162.491 399.911 143.371L399.612 122.585L385.173 122.204L370.733 121.824V131.927C370.733 140.013 371.134 142.03 372.748 142.03C374.346 142.03 374.763 143.966 374.763 151.417C374.763 160.536 374.667 160.804 371.404 160.804H368.046V128.62C368.046 97.5703 368.139 96.4358 370.674 96.4358C373.004 96.4358 373.347 97.5368 373.696 106.158L374.091 115.88H386.852H399.612L399.579 103.811C399.518 82.3875 393.927 76.2886 373.669 75.5484C367.253 75.3137 360.793 75.425 359.315 75.7965ZM2.15858 81.3496C2.46752 84.116 4.20432 98.1456 6.02038 112.528C7.83643 126.91 9.69413 142.298 10.1508 146.723C10.6062 151.149 11.6861 160.502 12.5525 167.509L14.1255 180.248H26.8755H39.6254L41.6833 161.207C42.8156 150.734 44.1763 141.733 44.7055 141.204C45.2361 140.675 45.6606 140.795 45.6498 141.471C45.6391 142.146 46.6331 151.299 47.8581 161.81L50.0865 180.919H62.5639C76.6839 180.919 75.7652 181.719 77.193 168.179C77.6591 163.754 78.8734 154.099 79.8916 146.723C80.9084 139.348 82.1267 129.089 82.5969 123.926C83.4552 114.508 86.6924 88.8364 88.0504 80.6791L88.7758 76.3208H77.9681C72.0243 76.3208 67.1497 76.7741 67.1349 77.3266C67.1215 77.8791 66.2201 86.1772 65.1335 95.7653C64.0481 105.353 63.1522 114.053 63.1455 115.099C63.1374 116.143 62.8903 116.747 62.5934 116.439C62.2979 116.131 61.3778 108.941 60.549 100.459C59.7202 91.977 58.7262 83.0754 58.3394 80.6791L57.6369 76.3208H46.9528C39.3057 76.3208 36.2633 76.7982 36.2553 77.9971C36.2297 81.5252 32.1221 114.431 31.648 114.904C30.8514 115.699 29.7741 108.68 28.9158 97.1063C28.4793 91.2059 27.7848 84.116 27.3751 81.3496L26.6283 76.3208H14.1134H1.59845L2.15858 81.3496ZM97.946 76.6561C97.723 77.3306 96.5893 85.5858 93.2971 110.516C91.4448 124.53 88.7328 144.745 87.27 155.44C83.4203 183.566 82.6627 181.105 95.0339 180.64L105.444 180.248L106.116 174.214C106.786 168.194 106.802 168.178 112.496 167.768C117.635 167.396 118.225 167.663 118.409 170.45C118.522 172.151 118.754 174.147 118.926 174.884C119.098 175.622 119.307 177.281 119.393 178.572C119.529 180.624 121.086 180.919 131.809 180.919H144.07L143.271 175.89C142.832 173.125 142.101 167.241 141.647 162.815C141.193 158.39 139.392 144.511 137.645 131.972C135.898 119.434 134.118 105.856 133.689 101.8C133.261 97.7433 132.267 90.3517 131.481 85.3726L130.051 76.3208H114.054C105.255 76.3208 98.0065 76.471 97.946 76.6561ZM147.756 128.62V180.919H168.576H189.396V170.191V159.463H180.665H171.934V117.892V76.3208H159.845H147.756V128.62ZM193.426 128.62V180.919H205.319H217.212L218.137 164.285C218.646 155.135 218.669 146.084 218.188 144.17C217.706 142.255 217.866 140.689 218.542 140.689C219.217 140.689 220.833 148.468 222.132 157.974C225.607 183.397 223.83 180.919 238.581 180.919C245.512 180.919 251.185 180.699 251.185 180.431C251.185 180.162 249.341 169.754 247.088 157.298C241.583 126.881 241.566 126.167 245.812 104.92C247.85 94.722 249.924 84.0919 250.421 81.2986L251.326 76.2189L238.858 76.6051L226.39 76.9913L222.82 97.7768L219.248 118.562L219.098 107.702C219.014 101.727 218.556 92.2237 218.078 86.5808L217.211 76.3208H205.317H193.426V128.62ZM254.191 128.285L254.543 180.248L266.968 180.634L279.393 181.019V128.671V76.3208H266.616H253.841L254.191 128.285ZM284.766 128.567V180.919H294.84H304.914V161.921C304.914 151.473 305.243 143.253 305.646 143.654C306.048 144.056 308.346 152.453 310.752 162.316L315.126 180.248L326.81 180.636L338.495 181.023V128.616V76.2082L328.085 76.5997L317.675 76.9913V92.7494C317.675 101.418 317.292 108.507 316.823 108.506C316.356 108.506 314.21 101.415 312.054 92.7481L308.134 76.9913L296.451 76.6038L284.766 76.2162V128.567ZM110.203 123.295C109.28 133.23 108.437 142.566 108.328 144.041C108.171 146.171 108.961 146.723 112.16 146.723C114.376 146.723 116.167 146.12 116.14 145.382C115.72 134.08 113.604 109.882 112.86 107.873C112.27 106.281 111.213 112.425 110.203 123.295ZM1.00743 191.067C0.45267 191.632 0 232.499 0 281.883V371.673L7.55167 371.047C12.8292 370.611 15.4929 369.729 16.3955 368.118C17.1061 366.851 18.996 365.94 20.5972 366.095C22.197 366.249 24.5866 365.911 25.907 365.342C27.4114 364.696 29.167 365.055 30.6083 366.307C31.8736 367.403 35.4144 368.681 38.477 369.144C44.6021 370.071 46.3255 368.378 44.9245 362.808C44.3388 360.48 44.7996 359.807 47.0925 359.635C48.6936 359.514 50.2424 359.176 50.5365 358.884C50.8294 358.592 50.6091 351.468 50.0489 343.055L49.0281 327.758L41.6403 327.346C37.577 327.12 33.6588 326.345 32.9321 325.626C32.1758 324.875 31.5096 313.31 31.3726 298.547C31.2423 284.374 30.7655 265.536 30.3155 256.685C29.3322 237.39 29.9729 235.666 36.9054 238.967C43.5799 242.143 44.2636 241.91 43.4228 236.741C42.5994 231.673 44.6626 229.373 47.7439 231.925C48.8978 232.881 49.6997 235.896 49.6997 239.274C49.6997 244.77 49.9576 245.13 56.0801 248.162L62.4604 251.321L63.2838 265.402C66.8636 326.559 66.8353 327.088 60.0614 327.088H55.6986L56.8054 343.515C57.4139 352.551 58.4294 360.462 59.062 361.099C59.6947 361.736 62.9843 362.569 66.3733 362.95C71.6885 363.548 72.5347 363.308 72.5347 361.204C72.5347 359.009 72.8074 359.058 75.2735 361.7C76.7793 363.315 78.6088 364.636 79.3368 364.636C81.3356 364.636 83.2806 358.455 83.2806 352.107C83.2806 349.001 84.2222 345.117 85.372 343.479C86.5218 341.839 87.0524 340.498 86.55 340.498C86.049 340.498 86.3848 339.599 87.2982 338.501C89.5683 335.769 91.7295 337.425 90.7866 341.175C90.2775 343.2 90.6966 344.502 92.021 345.009C93.1238 345.431 94.0265 346.701 94.0265 347.832C94.0265 351.255 96.3355 350.13 97.3765 346.197C99.0864 339.741 99.7728 238.06 98.1865 226.291C95.7941 208.539 89.3265 199.34 75.2212 193.625C70.086 191.545 64.1234 191.092 35.5957 190.609C17.1262 190.296 1.56218 190.503 1.00743 191.067ZM106.116 279.383C106.116 339.842 106.567 368.778 107.518 369.365C110.556 371.24 112.961 367.078 112.113 361.412C111.587 357.897 111.943 354.712 113.1 352.567C117.371 344.659 121.74 339.238 124.143 338.876C125.864 338.616 126.897 337.167 127.247 334.522C127.764 330.627 135.578 317.164 136.682 318.268C137.41 318.995 127.145 343.009 123.662 348.729C121.662 352.01 121.372 353.54 122.492 354.888C123.594 356.213 123.516 357.551 122.195 360.015C120.929 362.377 120.825 363.765 121.841 364.779C122.815 365.751 123.548 365.767 124.127 364.831C124.678 363.944 126.361 364.244 128.863 365.679C132.628 367.835 132.828 367.803 135.454 364.593C137.132 362.542 137.688 360.799 136.915 360.009C134.958 358.011 135.452 354.276 137.792 353.381C138.96 352.933 142.822 352.567 146.372 352.567C152.707 352.567 152.847 352.658 153.725 357.331C154.622 362.104 158.005 364.925 159.649 362.27C160.993 360.098 167.841 360.991 168.622 363.441C168.999 364.628 168.881 366.74 168.36 368.134C167.837 369.529 171.424 367.049 176.328 362.624L185.246 354.578L184.97 345.403L184.695 336.229L167.904 336.016L151.114 335.804V317.791V299.776L165.981 300.118C177.936 300.394 181.178 300.063 182.539 298.425C183.76 296.957 184.109 291.638 183.792 279.357L183.352 262.327L167.233 262.187L151.114 262.049L150.738 244.992L150.363 227.934L167.281 227.559L184.201 227.183L184.199 209.08L184.198 190.976L145.157 190.621L106.116 190.266V279.383ZM210.399 216.095C208.408 230.306 206.465 244.65 206.079 247.969C205.694 251.288 204.239 262.452 202.846 272.777C201.453 283.103 199.953 294.568 199.512 298.256C199.071 301.944 197.49 314.013 196.001 325.076C192.386 351.912 192.388 351.887 194.769 351.946C197.965 352.025 201.548 354.531 203.262 357.889C204.641 360.586 206.962 361.911 206.802 359.909C206.771 359.522 207.794 357.433 209.076 355.266C210.854 352.261 211.823 351.672 213.162 352.781C214.128 353.582 214.987 353.709 215.072 353.066C215.158 352.423 215.308 350.991 215.408 349.885C215.526 348.57 217.335 347.728 220.626 347.457C224.878 347.106 225.663 346.556 225.663 343.933C225.663 342.225 224.715 340.04 223.555 339.079C222.395 338.119 221.735 336.235 222.086 334.894C222.437 333.551 222.269 332.173 221.712 331.829C220.755 331.239 218.548 310.969 218.496 302.279C218.46 296.305 225.795 263.707 227.7 261.379C228.616 260.259 229.133 256.936 228.867 253.884C228.484 249.491 229.016 247.812 231.539 245.445C234.288 242.868 235.143 242.697 238.248 244.109C240.63 245.193 242.332 247.475 243.393 251.011C244.265 253.916 245.77 256.597 246.737 256.968C247.706 257.34 248.5 258.332 248.5 259.175C248.501 260.02 251.04 260.883 254.159 261.097C261.047 261.57 265.318 265.805 266.613 273.448C266.676 273.816 267.52 275.545 268.489 277.291C270.204 280.377 269.946 293.198 267.803 311.331C267.002 318.12 265.426 319.594 264.155 314.742C262.62 308.878 261.999 313.379 263.093 322.448C263.974 329.752 263.81 332.108 262.322 333.594C261.283 334.631 260.734 336.264 261.103 337.223C262.1 339.818 263.813 350.338 264.527 358.266C264.577 358.82 265.098 359.272 265.687 359.272C266.274 359.272 266.744 353.389 266.732 346.197L266.707 333.122L277.751 332.733C290.456 332.284 289.92 333.173 287.464 316.618C286.732 311.682 284.261 293.462 281.973 276.13C279.686 258.797 276.164 232.547 274.149 217.796L270.483 190.976L242.251 190.616L214.019 190.253L210.399 216.095ZM299.564 265.371C299.531 313.569 299.979 340.386 300.811 339.873C301.525 339.432 301.807 338.281 301.437 337.317C300.527 334.951 303.889 332.331 306.091 333.689C307.407 334.502 307.485 335.409 306.401 337.301C305.109 339.558 299.541 355.62 299.541 357.093C299.541 357.416 300.75 357.363 302.228 356.979C304.959 356.265 306.006 353.908 303.593 353.908C302.076 353.908 305.808 345.072 308.89 341.363C310.028 339.995 310.763 338.501 310.522 338.044C310.282 337.586 310.736 336.996 311.53 336.732C312.324 336.468 313.019 336.754 313.077 337.369C313.134 337.983 313.393 339.693 313.655 341.168C315.409 351.077 315.561 353.908 314.333 353.908C313.585 353.908 312.974 355.457 312.974 357.349C312.974 359.241 312.348 361.956 311.584 363.383C310.427 365.538 310.639 365.977 312.835 365.977C314.3 365.977 315.86 364.779 316.332 363.295C317.353 360.084 319.098 359.82 320.208 362.709C320.652 363.862 321.623 364.43 322.367 363.971C323.111 363.512 323.74 363.926 323.764 364.892C323.789 365.857 324.907 367.96 326.249 369.564C328.303 372.019 329.623 372.36 334.6 371.715C340.049 371.008 346.29 368.124 345.583 366.635C345.42 366.289 345.617 365.14 346.023 364.084C346.43 363.028 346.11 360.949 345.315 359.465C343.246 355.605 343.438 355.249 347.584 355.249H351.299L350.862 340.162C350.623 331.866 350.179 324.323 349.876 323.4C349.526 322.334 346.682 321.724 342.059 321.724C335.36 321.724 334.684 321.435 333.416 318.036C331.74 313.536 331.322 233.341 332.964 230.75C333.885 229.295 335.145 229.486 339.603 231.756C342.628 233.298 345.296 234.559 345.53 234.559C345.763 234.559 345.73 232.216 345.457 229.352C344.939 223.933 346.997 221.054 349.558 223.611C350.341 224.393 351.101 226.723 351.245 228.79C351.389 230.856 351.601 233.876 351.717 235.501C351.868 237.627 353.628 239.208 357.988 241.132C361.321 242.605 364.312 244.593 364.636 245.554C365.768 248.921 366.322 318.828 365.23 320.593C364.574 321.653 362.389 322.196 359.851 321.929C356.47 321.575 355.741 321.909 356.363 323.526C356.794 324.65 357.251 332.096 357.376 340.074C357.609 354.978 358.605 358.376 362.32 356.953C363.661 356.439 364.121 356.677 363.557 357.589C363.062 358.388 363.361 359.277 364.224 359.564C366.856 360.44 373.439 359.048 372.655 357.78C372.249 357.126 372.558 356.59 373.34 356.59C374.122 356.59 374.763 357.363 374.763 358.309C374.763 359.254 376.228 360.149 378.019 360.296C380.674 360.516 381.461 359.765 382.283 356.232C382.837 353.847 383.136 350.205 382.948 348.139C382.759 346.072 383.561 342.925 384.728 341.145C385.897 339.366 386.852 336.984 386.852 335.851C386.852 334.719 387.758 333.793 388.867 333.793C389.975 333.793 390.881 334.872 390.881 336.192C390.881 337.51 392.022 340.822 393.415 343.55L395.948 348.51L396.933 344.838C398.597 338.63 399.295 239.814 397.763 227.304C396.994 221.029 395.184 213.607 393.741 210.811C389.21 202.034 379.538 194.475 369.907 192.184C367.775 191.678 351.088 190.994 332.824 190.664L299.617 190.067L299.564 265.371ZM337.954 246.419C337.489 247.169 337.763 248.187 338.562 248.681C340.628 249.955 341.961 248.21 340.236 246.488C339.272 245.525 338.521 245.503 337.954 246.419ZM36.2673 253.924C36.2673 255.073 36.8718 256.015 37.6106 256.015C38.3494 256.015 38.9538 255.447 38.9538 254.753C38.9538 254.058 38.3494 253.118 37.6106 252.662C36.8718 252.206 36.2673 252.775 36.2673 253.924ZM341.182 254.003C341.182 255.11 341.786 256.015 342.525 256.015C343.264 256.015 343.868 255.11 343.868 254.003C343.868 252.897 343.264 251.992 342.525 251.992C341.786 251.992 341.182 252.897 341.182 254.003ZM39.5838 260.105C38.3077 262.167 40.0553 263.498 41.78 261.776C42.7444 260.813 42.7673 260.063 41.8498 259.497C41.0976 259.033 40.0781 259.307 39.5838 260.105ZM241.205 332.021C240.698 333.335 240.924 334.624 241.706 334.884C242.486 335.144 243.126 338.69 243.126 342.764C243.126 348.506 243.542 350.012 244.977 349.462C247.628 348.447 249.842 351.165 249.842 355.438C249.842 357.46 250.437 359.481 251.165 359.93C254.77 362.153 248.691 336.666 244.561 332.241C242.258 329.774 242.072 329.762 241.205 332.021ZM287.08 335.952C286.215 336.817 289.623 344.521 290.871 344.521C291.744 344.521 290.057 337.44 288.868 336.117C288.36 335.552 287.556 335.477 287.08 335.952ZM279.44 339.068C278.676 340.495 278.05 345.796 278.05 350.849C278.05 359.569 278.247 360.151 281.958 362.34C287.301 365.49 290.139 364.121 290.139 358.391C290.139 353.739 283.574 336.518 281.791 336.489C281.263 336.481 280.206 337.641 279.44 339.068ZM270.662 339.157C270.205 339.894 270.775 340.498 271.926 340.498C273.077 340.498 274.02 339.894 274.02 339.157C274.02 338.419 273.452 337.816 272.756 337.816C272.06 337.816 271.119 338.419 270.662 339.157ZM119.76 345.134C117.662 348.682 117.418 349.885 118.79 349.885C120.491 349.885 124.23 342.044 123.078 340.893C122.797 340.613 121.304 342.521 119.76 345.134ZM270.607 348.634C270.119 349.419 270.044 350.385 270.438 350.779C271.401 351.739 274.02 350.047 274.02 348.465C274.02 346.751 271.702 346.865 270.607 348.634ZM303.571 363.295C303.571 364.032 304.139 364.636 304.835 364.636C305.531 364.636 306.473 364.032 306.929 363.295C307.386 362.557 306.816 361.954 305.665 361.954C304.514 361.954 303.571 362.557 303.571 363.295Z"/>
</mask>
<path fill-rule="evenodd" clip-rule="evenodd" d="M344.54 29.3858C343.3 31.3893 345.025 33.4088 347.977 33.4088C350.429 33.4088 350.584 34.4857 350.584 51.5123C350.584 66.7099 350.908 69.6158 352.599 69.6158C354.29 69.6158 354.614 66.7099 354.614 51.5123C354.614 34.8518 354.81 33.4088 357.076 33.4088C360.246 33.4088 361.328 32.2811 360.422 29.9249C359.571 27.7096 345.866 27.2443 344.54 29.3858ZM364.934 28.9165C364.43 29.4207 364.017 38.7836 364.017 49.7248C364.017 66.5114 364.331 69.6158 366.032 69.6158C367.63 69.6158 368.046 67.6794 368.046 60.2288V50.8418H372.076H376.106V60.2288C376.106 67.6794 376.522 69.6158 378.121 69.6158C379.825 69.6158 380.136 66.4001 380.136 48.719C380.136 32.6002 379.751 27.947 378.456 28.3734C377.422 28.714 376.52 32.4862 376.106 38.2069C375.466 47.0347 375.27 47.4893 372.076 47.4893C368.881 47.4893 368.698 47.0683 368.311 38.7728C367.916 30.291 366.805 27.0485 364.934 28.9165ZM385.061 28.9393C384.568 29.4301 384.165 38.8171 384.165 49.7972V69.7633L390.23 69.3543C396.96 68.9011 399.008 66.502 393.232 65.8396C389.707 65.4346 389.538 65.0806 389.538 58.1288C389.538 51.2495 389.726 50.8418 392.896 50.8418C397.075 50.8418 397.344 48.5004 393.232 47.9185C390.599 47.5443 390.157 46.5828 389.804 40.4491C389.415 33.6891 389.534 33.4088 392.826 33.4088C395.358 33.4088 396.254 32.7088 396.254 30.7268C396.254 28.5115 395.358 28.0448 391.106 28.0448C388.273 28.0448 385.553 28.4471 385.061 28.9393ZM359.315 75.7965C352.677 77.4634 348.956 79.6572 346.184 83.5381C343.288 87.5906 343.184 88.9061 342.786 126.245C342.401 162.161 342.553 165.174 345.018 170.738C348.968 179.653 353.466 181.548 370.733 181.57C387.746 181.593 392.573 179.515 397.224 170.159C399.97 164.638 400.185 162.491 399.911 143.371L399.612 122.585L385.173 122.204L370.733 121.824V131.927C370.733 140.013 371.134 142.03 372.748 142.03C374.346 142.03 374.763 143.966 374.763 151.417C374.763 160.536 374.667 160.804 371.404 160.804H368.046V128.62C368.046 97.5703 368.139 96.4358 370.674 96.4358C373.004 96.4358 373.347 97.5368 373.696 106.158L374.091 115.88H386.852H399.612L399.579 103.811C399.518 82.3875 393.927 76.2886 373.669 75.5484C367.253 75.3137 360.793 75.425 359.315 75.7965ZM2.15858 81.3496C2.46752 84.116 4.20432 98.1456 6.02038 112.528C7.83643 126.91 9.69413 142.298 10.1508 146.723C10.6062 151.149 11.6861 160.502 12.5525 167.509L14.1255 180.248H26.8755H39.6254L41.6833 161.207C42.8156 150.734 44.1763 141.733 44.7055 141.204C45.2361 140.675 45.6606 140.795 45.6498 141.471C45.6391 142.146 46.6331 151.299 47.8581 161.81L50.0865 180.919H62.5639C76.6839 180.919 75.7652 181.719 77.193 168.179C77.6591 163.754 78.8734 154.099 79.8916 146.723C80.9084 139.348 82.1267 129.089 82.5969 123.926C83.4552 114.508 86.6924 88.8364 88.0504 80.6791L88.7758 76.3208H77.9681C72.0243 76.3208 67.1497 76.7741 67.1349 77.3266C67.1215 77.8791 66.2201 86.1772 65.1335 95.7653C64.0481 105.353 63.1522 114.053 63.1455 115.099C63.1374 116.143 62.8903 116.747 62.5934 116.439C62.2979 116.131 61.3778 108.941 60.549 100.459C59.7202 91.977 58.7262 83.0754 58.3394 80.6791L57.6369 76.3208H46.9528C39.3057 76.3208 36.2633 76.7982 36.2553 77.9971C36.2297 81.5252 32.1221 114.431 31.648 114.904C30.8514 115.699 29.7741 108.68 28.9158 97.1063C28.4793 91.2059 27.7848 84.116 27.3751 81.3496L26.6283 76.3208H14.1134H1.59845L2.15858 81.3496ZM97.946 76.6561C97.723 77.3306 96.5893 85.5858 93.2971 110.516C91.4448 124.53 88.7328 144.745 87.27 155.44C83.4203 183.566 82.6627 181.105 95.0339 180.64L105.444 180.248L106.116 174.214C106.786 168.194 106.802 168.178 112.496 167.768C117.635 167.396 118.225 167.663 118.409 170.45C118.522 172.151 118.754 174.147 118.926 174.884C119.098 175.622 119.307 177.281 119.393 178.572C119.529 180.624 121.086 180.919 131.809 180.919H144.07L143.271 175.89C142.832 173.125 142.101 167.241 141.647 162.815C141.193 158.39 139.392 144.511 137.645 131.972C135.898 119.434 134.118 105.856 133.689 101.8C133.261 97.7433 132.267 90.3517 131.481 85.3726L130.051 76.3208H114.054C105.255 76.3208 98.0065 76.471 97.946 76.6561ZM147.756 128.62V180.919H168.576H189.396V170.191V159.463H180.665H171.934V117.892V76.3208H159.845H147.756V128.62ZM193.426 128.62V180.919H205.319H217.212L218.137 164.285C218.646 155.135 218.669 146.084 218.188 144.17C217.706 142.255 217.866 140.689 218.542 140.689C219.217 140.689 220.833 148.468 222.132 157.974C225.607 183.397 223.83 180.919 238.581 180.919C245.512 180.919 251.185 180.699 251.185 180.431C251.185 180.162 249.341 169.754 247.088 157.298C241.583 126.881 241.566 126.167 245.812 104.92C247.85 94.722 249.924 84.0919 250.421 81.2986L251.326 76.2189L238.858 76.6051L226.39 76.9913L222.82 97.7768L219.248 118.562L219.098 107.702C219.014 101.727 218.556 92.2237 218.078 86.5808L217.211 76.3208H205.317H193.426V128.62ZM254.191 128.285L254.543 180.248L266.968 180.634L279.393 181.019V128.671V76.3208H266.616H253.841L254.191 128.285ZM284.766 128.567V180.919H294.84H304.914V161.921C304.914 151.473 305.243 143.253 305.646 143.654C306.048 144.056 308.346 152.453 310.752 162.316L315.126 180.248L326.81 180.636L338.495 181.023V128.616V76.2082L328.085 76.5997L317.675 76.9913V92.7494C317.675 101.418 317.292 108.507 316.823 108.506C316.356 108.506 314.21 101.415 312.054 92.7481L308.134 76.9913L296.451 76.6038L284.766 76.2162V128.567ZM110.203 123.295C109.28 133.23 108.437 142.566 108.328 144.041C108.171 146.171 108.961 146.723 112.16 146.723C114.376 146.723 116.167 146.12 116.14 145.382C115.72 134.08 113.604 109.882 112.86 107.873C112.27 106.281 111.213 112.425 110.203 123.295ZM1.00743 191.067C0.45267 191.632 0 232.499 0 281.883V371.673L7.55167 371.047C12.8292 370.611 15.4929 369.729 16.3955 368.118C17.1061 366.851 18.996 365.94 20.5972 366.095C22.197 366.249 24.5866 365.911 25.907 365.342C27.4114 364.696 29.167 365.055 30.6083 366.307C31.8736 367.403 35.4144 368.681 38.477 369.144C44.6021 370.071 46.3255 368.378 44.9245 362.808C44.3388 360.48 44.7996 359.807 47.0925 359.635C48.6936 359.514 50.2424 359.176 50.5365 358.884C50.8294 358.592 50.6091 351.468 50.0489 343.055L49.0281 327.758L41.6403 327.346C37.577 327.12 33.6588 326.345 32.9321 325.626C32.1758 324.875 31.5096 313.31 31.3726 298.547C31.2423 284.374 30.7655 265.536 30.3155 256.685C29.3322 237.39 29.9729 235.666 36.9054 238.967C43.5799 242.143 44.2636 241.91 43.4228 236.741C42.5994 231.673 44.6626 229.373 47.7439 231.925C48.8978 232.881 49.6997 235.896 49.6997 239.274C49.6997 244.77 49.9576 245.13 56.0801 248.162L62.4604 251.321L63.2838 265.402C66.8636 326.559 66.8353 327.088 60.0614 327.088H55.6986L56.8054 343.515C57.4139 352.551 58.4294 360.462 59.062 361.099C59.6947 361.736 62.9843 362.569 66.3733 362.95C71.6885 363.548 72.5347 363.308 72.5347 361.204C72.5347 359.009 72.8074 359.058 75.2735 361.7C76.7793 363.315 78.6088 364.636 79.3368 364.636C81.3356 364.636 83.2806 358.455 83.2806 352.107C83.2806 349.001 84.2222 345.117 85.372 343.479C86.5218 341.839 87.0524 340.498 86.55 340.498C86.049 340.498 86.3848 339.599 87.2982 338.501C89.5683 335.769 91.7295 337.425 90.7866 341.175C90.2775 343.2 90.6966 344.502 92.021 345.009C93.1238 345.431 94.0265 346.701 94.0265 347.832C94.0265 351.255 96.3355 350.13 97.3765 346.197C99.0864 339.741 99.7728 238.06 98.1865 226.291C95.7941 208.539 89.3265 199.34 75.2212 193.625C70.086 191.545 64.1234 191.092 35.5957 190.609C17.1262 190.296 1.56218 190.503 1.00743 191.067ZM106.116 279.383C106.116 339.842 106.567 368.778 107.518 369.365C110.556 371.24 112.961 367.078 112.113 361.412C111.587 357.897 111.943 354.712 113.1 352.567C117.371 344.659 121.74 339.238 124.143 338.876C125.864 338.616 126.897 337.167 127.247 334.522C127.764 330.627 135.578 317.164 136.682 318.268C137.41 318.995 127.145 343.009 123.662 348.729C121.662 352.01 121.372 353.54 122.492 354.888C123.594 356.213 123.516 357.551 122.195 360.015C120.929 362.377 120.825 363.765 121.841 364.779C122.815 365.751 123.548 365.767 124.127 364.831C124.678 363.944 126.361 364.244 128.863 365.679C132.628 367.835 132.828 367.803 135.454 364.593C137.132 362.542 137.688 360.799 136.915 360.009C134.958 358.011 135.452 354.276 137.792 353.381C138.96 352.933 142.822 352.567 146.372 352.567C152.707 352.567 152.847 352.658 153.725 357.331C154.622 362.104 158.005 364.925 159.649 362.27C160.993 360.098 167.841 360.991 168.622 363.441C168.999 364.628 168.881 366.74 168.36 368.134C167.837 369.529 171.424 367.049 176.328 362.624L185.246 354.578L184.97 345.403L184.695 336.229L167.904 336.016L151.114 335.804V317.791V299.776L165.981 300.118C177.936 300.394 181.178 300.063 182.539 298.425C183.76 296.957 184.109 291.638 183.792 279.357L183.352 262.327L167.233 262.187L151.114 262.049L150.738 244.992L150.363 227.934L167.281 227.559L184.201 227.183L184.199 209.08L184.198 190.976L145.157 190.621L106.116 190.266V279.383ZM210.399 216.095C208.408 230.306 206.465 244.65 206.079 247.969C205.694 251.288 204.239 262.452 202.846 272.777C201.453 283.103 199.953 294.568 199.512 298.256C199.071 301.944 197.49 314.013 196.001 325.076C192.386 351.912 192.388 351.887 194.769 351.946C197.965 352.025 201.548 354.531 203.262 357.889C204.641 360.586 206.962 361.911 206.802 359.909C206.771 359.522 207.794 357.433 209.076 355.266C210.854 352.261 211.823 351.672 213.162 352.781C214.128 353.582 214.987 353.709 215.072 353.066C215.158 352.423 215.308 350.991 215.408 349.885C215.526 348.57 217.335 347.728 220.626 347.457C224.878 347.106 225.663 346.556 225.663 343.933C225.663 342.225 224.715 340.04 223.555 339.079C222.395 338.119 221.735 336.235 222.086 334.894C222.437 333.551 222.269 332.173 221.712 331.829C220.755 331.239 218.548 310.969 218.496 302.279C218.46 296.305 225.795 263.707 227.7 261.379C228.616 260.259 229.133 256.936 228.867 253.884C228.484 249.491 229.016 247.812 231.539 245.445C234.288 242.868 235.143 242.697 238.248 244.109C240.63 245.193 242.332 247.475 243.393 251.011C244.265 253.916 245.77 256.597 246.737 256.968C247.706 257.34 248.5 258.332 248.5 259.175C248.501 260.02 251.04 260.883 254.159 261.097C261.047 261.57 265.318 265.805 266.613 273.448C266.676 273.816 267.52 275.545 268.489 277.291C270.204 280.377 269.946 293.198 267.803 311.331C267.002 318.12 265.426 319.594 264.155 314.742C262.62 308.878 261.999 313.379 263.093 322.448C263.974 329.752 263.81 332.108 262.322 333.594C261.283 334.631 260.734 336.264 261.103 337.223C262.1 339.818 263.813 350.338 264.527 358.266C264.577 358.82 265.098 359.272 265.687 359.272C266.274 359.272 266.744 353.389 266.732 346.197L266.707 333.122L277.751 332.733C290.456 332.284 289.92 333.173 287.464 316.618C286.732 311.682 284.261 293.462 281.973 276.13C279.686 258.797 276.164 232.547 274.149 217.796L270.483 190.976L242.251 190.616L214.019 190.253L210.399 216.095ZM299.564 265.371C299.531 313.569 299.979 340.386 300.811 339.873C301.525 339.432 301.807 338.281 301.437 337.317C300.527 334.951 303.889 332.331 306.091 333.689C307.407 334.502 307.485 335.409 306.401 337.301C305.109 339.558 299.541 355.62 299.541 357.093C299.541 357.416 300.75 357.363 302.228 356.979C304.959 356.265 306.006 353.908 303.593 353.908C302.076 353.908 305.808 345.072 308.89 341.363C310.028 339.995 310.763 338.501 310.522 338.044C310.282 337.586 310.736 336.996 311.53 336.732C312.324 336.468 313.019 336.754 313.077 337.369C313.134 337.983 313.393 339.693 313.655 341.168C315.409 351.077 315.561 353.908 314.333 353.908C313.585 353.908 312.974 355.457 312.974 357.349C312.974 359.241 312.348 361.956 311.584 363.383C310.427 365.538 310.639 365.977 312.835 365.977C314.3 365.977 315.86 364.779 316.332 363.295C317.353 360.084 319.098 359.82 320.208 362.709C320.652 363.862 321.623 364.43 322.367 363.971C323.111 363.512 323.74 363.926 323.764 364.892C323.789 365.857 324.907 367.96 326.249 369.564C328.303 372.019 329.623 372.36 334.6 371.715C340.049 371.008 346.29 368.124 345.583 366.635C345.42 366.289 345.617 365.14 346.023 364.084C346.43 363.028 346.11 360.949 345.315 359.465C343.246 355.605 343.438 355.249 347.584 355.249H351.299L350.862 340.162C350.623 331.866 350.179 324.323 349.876 323.4C349.526 322.334 346.682 321.724 342.059 321.724C335.36 321.724 334.684 321.435 333.416 318.036C331.74 313.536 331.322 233.341 332.964 230.75C333.885 229.295 335.145 229.486 339.603 231.756C342.628 233.298 345.296 234.559 345.53 234.559C345.763 234.559 345.73 232.216 345.457 229.352C344.939 223.933 346.997 221.054 349.558 223.611C350.341 224.393 351.101 226.723 351.245 228.79C351.389 230.856 351.601 233.876 351.717 235.501C351.868 237.627 353.628 239.208 357.988 241.132C361.321 242.605 364.312 244.593 364.636 245.554C365.768 248.921 366.322 318.828 365.23 320.593C364.574 321.653 362.389 322.196 359.851 321.929C356.47 321.575 355.741 321.909 356.363 323.526C356.794 324.65 357.251 332.096 357.376 340.074C357.609 354.978 358.605 358.376 362.32 356.953C363.661 356.439 364.121 356.677 363.557 357.589C363.062 358.388 363.361 359.277 364.224 359.564C366.856 360.44 373.439 359.048 372.655 357.78C372.249 357.126 372.558 356.59 373.34 356.59C374.122 356.59 374.763 357.363 374.763 358.309C374.763 359.254 376.228 360.149 378.019 360.296C380.674 360.516 381.461 359.765 382.283 356.232C382.837 353.847 383.136 350.205 382.948 348.139C382.759 346.072 383.561 342.925 384.728 341.145C385.897 339.366 386.852 336.984 386.852 335.851C386.852 334.719 387.758 333.793 388.867 333.793C389.975 333.793 390.881 334.872 390.881 336.192C390.881 337.51 392.022 340.822 393.415 343.55L395.948 348.51L396.933 344.838C398.597 338.63 399.295 239.814 397.763 227.304C396.994 221.029 395.184 213.607 393.741 210.811C389.21 202.034 379.538 194.475 369.907 192.184C367.775 191.678 351.088 190.994 332.824 190.664L299.617 190.067L299.564 265.371ZM337.954 246.419C337.489 247.169 337.763 248.187 338.562 248.681C340.628 249.955 341.961 248.21 340.236 246.488C339.272 245.525 338.521 245.503 337.954 246.419ZM36.2673 253.924C36.2673 255.073 36.8718 256.015 37.6106 256.015C38.3494 256.015 38.9538 255.447 38.9538 254.753C38.9538 254.058 38.3494 253.118 37.6106 252.662C36.8718 252.206 36.2673 252.775 36.2673 253.924ZM341.182 254.003C341.182 255.11 341.786 256.015 342.525 256.015C343.264 256.015 343.868 255.11 343.868 254.003C343.868 252.897 343.264 251.992 342.525 251.992C341.786 251.992 341.182 252.897 341.182 254.003ZM39.5838 260.105C38.3077 262.167 40.0553 263.498 41.78 261.776C42.7444 260.813 42.7673 260.063 41.8498 259.497C41.0976 259.033 40.0781 259.307 39.5838 260.105ZM241.205 332.021C240.698 333.335 240.924 334.624 241.706 334.884C242.486 335.144 243.126 338.69 243.126 342.764C243.126 348.506 243.542 350.012 244.977 349.462C247.628 348.447 249.842 351.165 249.842 355.438C249.842 357.46 250.437 359.481 251.165 359.93C254.77 362.153 248.691 336.666 244.561 332.241C242.258 329.774 242.072 329.762 241.205 332.021ZM287.08 335.952C286.215 336.817 289.623 344.521 290.871 344.521C291.744 344.521 290.057 337.44 288.868 336.117C288.36 335.552 287.556 335.477 287.08 335.952ZM279.44 339.068C278.676 340.495 278.05 345.796 278.05 350.849C278.05 359.569 278.247 360.151 281.958 362.34C287.301 365.49 290.139 364.121 290.139 358.391C290.139 353.739 283.574 336.518 281.791 336.489C281.263 336.481 280.206 337.641 279.44 339.068ZM270.662 339.157C270.205 339.894 270.775 340.498 271.926 340.498C273.077 340.498 274.02 339.894 274.02 339.157C274.02 338.419 273.452 337.816 272.756 337.816C272.06 337.816 271.119 338.419 270.662 339.157ZM119.76 345.134C117.662 348.682 117.418 349.885 118.79 349.885C120.491 349.885 124.23 342.044 123.078 340.893C122.797 340.613 121.304 342.521 119.76 345.134ZM270.607 348.634C270.119 349.419 270.044 350.385 270.438 350.779C271.401 351.739 274.02 350.047 274.02 348.465C274.02 346.751 271.702 346.865 270.607 348.634ZM303.571 363.295C303.571 364.032 304.139 364.636 304.835 364.636C305.531 364.636 306.473 364.032 306.929 363.295C307.386 362.557 306.816 361.954 305.665 361.954C304.514 361.954 303.571 362.557 303.571 363.295Z" stroke="#F8F8F8" stroke-width="4" mask="url(#path-1-inside-1_28_2)"/>
</svg>
